<svg xmlns="http://www.w3.org/2000/svg" viewBox="25.25 131.9821 317.85 159.653" width="317.85" height="159.653" role="img" aria-label="Queen, message queue"><title>Queen, message queue</title><path fill="#fcc620" fill-rule="evenodd" d="M102.217 288.664C100.575 286.785 97.984 282.677 96.516 279.625C94.56 275.557 94.286 274.875 93.856 272.997C93.651 272.105 93.38 270.925 93.253 270.375C92.164 265.667 93.458 257.699 96.041 253.206C96.568 252.289 97 251.482 97 251.415C97 251.091 99.59 247.471 99.957 247.282C100.268 247.122 107.675 247.089 110.41 247.235C111.195 247.277 114.262 254.55 115.265 258.751C116.164 262.514 115.71 270.08 114.396 273.25C114.197 273.731 113.731 274.91 113.361 275.869C111.763 280.016 108.647 284.838 105.403 288.188C103.635 290.012 103.423 290.044 102.217 288.664ZM64.888 278.179C63.758 276.456 63.58 265.737 64.598 260.846C66.528 251.583 71.333 245.292 79.834 240.9C83.117 239.204 83.097 239.205 84.916 240.7C86.452 241.964 88.579 243.403 89.93 244.094C91.124 244.704 91.25 245.152 91.248 248.796C91.242 260.08 85.964 268.567 75.049 274.844C74.182 275.342 73.402 275.75 73.316 275.75C73.229 275.75 72.7 275.966 72.141 276.231C70.364 277.072 65.857 278.75 65.375 278.75C65.313 278.75 65.093 278.493 64.888 278.179ZM45.25 250.226C43.806 250.102 41.781 249.788 40.75 249.529C39.719 249.27 38.566 248.986 38.188 248.899C37.181 248.667 37.236 248.192 38.628 245.125C38.94 244.438 39.263 243.706 39.346 243.5C39.429 243.294 39.605 242.956 39.737 242.75C39.869 242.544 40.675 241.137 41.529 239.625C44.353 234.621 48.479 229.84 51.995 227.5C52.304 227.294 52.798 226.947 53.091 226.73C58.929 222.404 72.923 220.749 73.842 224.275C74.233 225.777 75.272 228.331 76.148 229.946C77.228 231.938 77.217 232.286 76 234.5C75.45 235.501 75 236.351 75 236.39C75 236.429 74.488 237.229 73.861 238.168C70.094 243.816 65.645 246.869 57.553 249.36C54.915 250.171 49.253 250.57 45.25 250.226ZM47.481 220.119C46.44 219.943 45.058 219.62 44.41 219.4C43.762 219.18 43.118 219 42.979 219C40.419 219 27.25 209.625 27.25 207.804C27.25 207.34 32.434 203.447 34.975 202.002C48.17 194.5 61.489 195.97 71.192 206C72.583 207.437 72.748 207.712 72.621 208.375C72.542 208.787 72.387 209.688 72.276 210.375C71.966 212.3 71.677 212.604 67.151 215.767C61.648 219.611 54.215 221.256 47.481 220.119ZM68.846 197.118C67.455 196.939 65.792 196.614 65.15 196.396C64.508 196.178 63.802 196 63.581 196C63.36 196 62.661 195.76 62.027 195.467C61.394 195.173 60.256 194.648 59.5 194.299C55.533 192.469 50.328 187.66 47.812 183.5C45.565 179.786 42.524 171.88 42.504 169.702C42.483 167.433 58.662 168.015 63.875 170.471C64.15 170.6 65.162 171.073 66.125 171.521C71.885 174.2 77.093 179.553 79.484 185.25C79.917 186.281 80.439 187.502 80.644 187.963C81.44 189.753 81.375 190.772 80.395 191.875C79.907 192.425 78.869 193.808 78.09 194.949C76.162 197.771 75.366 197.958 68.846 197.118ZM87.625 182.482C80.694 178.998 74.473 172.871 73.127 168.204C73.035 167.885 72.755 167.062 72.504 166.375C70.889 161.946 70.875 161.844 70.881 155C70.885 150.495 70.983 148.295 71.215 147.5C71.395 146.881 71.689 145.738 71.869 144.959C72.395 142.667 72.44 142.649 74.98 143.645C75.885 144 76.963 144.421 77.375 144.582C88.656 148.974 97.071 159.233 98.018 169.75C98.462 174.681 98.178 180.82 97.485 181.271C97.287 181.399 96.506 181.679 95.75 181.892C94.176 182.335 92.691 182.881 91.667 183.395C90.626 183.918 90.362 183.858 87.625 182.482ZM118.625 183.056C116.812 182.287 114.402 181.58 112.375 181.224C109.426 180.706 109.496 180.749 107.759 178.44C100.263 168.481 98.621 158.776 102.629 148.125C103.404 146.065 105.128 142.549 105.641 141.983C105.838 141.764 106 141.519 106 141.437C106 140.985 108.85 137.122 110.979 134.69C112.15 133.352 112.611 133.655 115.766 137.843C118.527 141.508 118.872 142.037 120.188 144.625C125.728 155.52 126.514 168.937 122.319 181C121.274 184.005 121.094 184.105 118.625 183.056Z"/><path fill="#f9f7f4" fill-rule="evenodd" d="M119 190.7C114.9 188.7 110.6 187.6 105.8 187.6C90.6 187.6 78.5 199.5 78.5 215C78.5 230.1 90 242 104.8 242C109.8 242 114.5 240.7 119 237.7L131 237.7L119 244.5L119 261.3L132.5 261.3L132.5 190.7ZM119 214.2C119 221.5 113.1 227.3 105.9 227.3C98.6 227.3 92.8 221.5 92.8 214.2C92.8 207 98.6 201.1 105.9 201.1C113.1 201.1 119 207 119 214.2ZM139.1 190.9L152.2 190.9L152.2 215.8C152.2 222.2 155.5 225.8 161.3 225.8C167.1 225.8 170.5 222.2 170.5 215.8L170.5 190.9L183.5 190.9L183.5 215.8C183.5 229.8 175.1 238.3 161.3 238.3C147.5 238.3 139.1 229.8 139.1 215.8ZM237.5 218L202.2 218C204.1 223.2 208 226.1 213 226.1C216.8 226.1 219.5 224.3 222 221.5L234.8 225.2C230.3 233.6 222.4 238.4 213 238.4C198.8 238.4 188 227.8 188 214.2C188 200.5 198.9 189.8 213 189.8C227.4 189.8 237.6 200.5 237.6 214.2C237.6 215.6 237.6 216.8 237.5 218ZM202.6 209L222.8 209C221.1 204.6 217.7 201.6 212.8 201.6C208.1 201.6 204.7 204.4 202.6 209ZM291.35 218L256.05 218C257.95 223.2 261.85 226.1 266.85 226.1C270.65 226.1 273.35 224.3 275.85 221.5L288.65 225.2C284.15 233.6 276.25 238.4 266.85 238.4C252.65 238.4 241.85 227.8 241.85 214.2C241.85 200.5 252.75 189.8 266.85 189.8C281.25 189.8 291.45 200.5 291.45 214.2C291.45 215.6 291.45 216.8 291.35 218ZM256.45 209L276.65 209C274.95 204.6 271.55 201.6 266.65 201.6C261.95 201.6 258.55 204.4 256.45 209ZM296.1 237.4L296.1 212.5C296.1 199 305.2 189.8 318.6 189.8C332.4 189.8 341.1 199.2 341.1 212.5L341.1 237.4L328.1 237.4L328.1 213.2C328.1 206.4 324.6 202.8 318.6 202.8C312.8 202.8 308.9 206.4 308.9 213.2L308.9 237.4Z"/><path fill="#f1f0ed" d="M147 251.5221L147 259L148.3407 259L148.3407 255.1294Q148.3407 253.7954 148.7453 253.147Q148.9675 252.791 149.3256 252.6107Q149.6743 252.4353 150.138 252.4353Q150.5253 252.4353 150.8241 252.6048Q151.123 252.7743 151.3166 253.1037Q151.6672 253.7005 151.6672 254.8415L151.6672 259L153.0163 259L153.0163 255.1294Q153.0163 253.7795 153.4119 253.1397Q153.6298 252.7875 153.9816 252.609Q154.3243 252.4353 154.7801 252.4353Q155.1811 252.4353 155.4805 252.5861Q155.7912 252.7426 155.9787 253.0528Q156.3009 253.5925 156.3009 254.8168L156.3009 259L157.65 259L157.65 254.315Q157.65 252.7698 157.023 252.0233Q156.4155 251.3 155.1656 251.3Q153.7866 251.3 152.98 252.3758Q152.9516 252.4136 152.9118 252.4397Q152.8895 252.4543 152.8647 252.4643Q152.8399 252.4744 152.8136 252.4795Q152.7873 252.4846 152.7604 252.4846Q152.7336 252.4846 152.7073 252.4794Q152.681 252.4743 152.6562 252.4642Q152.6315 252.4541 152.6092 252.4394Q152.5869 252.4247 152.5679 252.4061Q152.549 252.3875 152.5341 252.3656Q152.1688 251.8275 151.6802 251.5629Q151.1949 251.3 150.5737 251.3Q150.0191 251.3 149.6691 251.4753Q149.3235 251.6524 148.8099 252.1799Q148.7713 252.2195 148.7201 252.241Q148.6688 252.2625 148.613 252.2625Q148.5862 252.2625 148.5599 252.2573Q148.5336 252.2522 148.5088 252.2421Q148.484 252.2321 148.4617 252.2174Q148.4394 252.2028 148.4205 252.1842Q148.4015 252.1656 148.3866 252.1437Q148.3717 252.1218 148.3614 252.0975Q148.3511 252.0731 148.3459 252.0473Q148.3407 252.0215 148.3407 251.9951L148.3407 251.5221L147 251.5221ZM173.8466 255.416L173.85 255.2459Q173.85 253.3503 172.8398 252.299Q171.8311 251.25 170.0762 251.25Q168.3386 251.25 167.297 252.3303Q166.25 253.4402 166.25 255.2541Q166.25 257.0812 167.327 258.1729Q168.3973 259.25 170.1812 259.25Q170.8114 259.25 171.3464 259.125Q171.8716 259.0024 172.3235 258.7382Q172.7795 258.4716 173.1812 258.0554Q173.5067 257.7182 173.8075 257.27L172.6351 256.6494Q172.0897 257.4176 171.634 257.7378Q171.0782 258.1214 170.2512 258.1214Q169.1877 258.1214 168.4993 257.4587Q167.824 256.7993 167.7376 255.7059Q167.7368 255.6958 167.7368 255.6857Q167.7368 255.6591 167.7423 255.633Q167.7477 255.607 167.7584 255.5824Q167.7691 255.5579 167.7846 255.5358Q167.8002 255.5138 167.82 255.495Q167.8398 255.4762 167.8631 255.4615Q167.8864 255.4467 167.9123 255.4365Q167.9381 255.4263 167.9656 255.4212Q167.993 255.416 168.021 255.416L173.8466 255.416ZM172.3802 254.0906Q172.3895 254.1241 172.3895 254.1587Q172.3895 254.1853 172.384 254.2114Q172.3785 254.2374 172.3678 254.262Q172.3571 254.2865 172.3415 254.3085Q172.326 254.3306 172.3062 254.3494Q172.2864 254.3682 172.2631 254.3829Q172.2399 254.3977 172.214 254.4079Q172.1881 254.4181 172.1606 254.4232Q172.1332 254.4284 172.1052 254.4284L168.1522 254.4284Q168.1156 254.4284 168.0802 254.4196Q168.0531 254.4129 168.0279 254.4013Q168.0027 254.3897 167.9804 254.3736Q167.9581 254.3576 167.9395 254.3377Q167.921 254.3178 167.9068 254.2949Q167.8927 254.272 167.8836 254.2468Q167.8744 254.2217 167.8706 254.1954Q167.8668 254.1691 167.8684 254.1426Q167.8701 254.1161 167.8772 254.0904Q167.9847 253.701 168.1923 253.3915Q168.4014 253.0796 168.6966 252.8565Q168.9926 252.6327 169.3533 252.5139Q169.7134 252.3952 170.12 252.3952Q171.0061 252.3952 171.58 252.827Q172.1507 253.2565 172.3802 254.0906ZM185.607 253.0407L186.6528 252.4685Q186.3476 251.9033 185.9259 251.6023Q185.4323 251.25 184.7597 251.25Q183.8379 251.25 183.1972 251.8642Q182.5762 252.4733 182.5762 253.4118Q182.5762 254.1106 182.927 254.5421Q183.2141 254.8962 183.9541 255.2688Q184.2352 255.4092 184.5082 255.5412Q184.7854 255.6754 185.0627 255.8179Q185.0709 255.8221 185.0788 255.8269Q185.9181 256.3368 185.9181 256.9886Q185.9181 257.5392 185.6025 257.8351Q185.2973 258.1214 184.7355 258.1214Q184.1725 258.1214 183.7684 257.7363Q183.6049 257.5843 183.3464 257.1453L182.25 257.6678Q182.6104 258.4105 183.1629 258.8017Q183.796 259.25 184.7032 259.25Q185.7576 259.25 186.4959 258.5737Q187.25 257.8655 187.25 256.8143Q187.25 256.0095 186.822 255.5482Q186.3585 255.0486 184.9642 254.432Q184.4022 254.1876 184.1091 253.9302Q183.7547 253.6192 183.7547 253.2624Q183.7547 252.8796 184.0158 252.6294Q184.269 252.3869 184.6225 252.3869Q185.2099 252.3869 185.607 253.0407ZM198.857 253.0407L199.9028 252.4685Q199.5976 251.9033 199.1759 251.6023Q198.6823 251.25 198.0097 251.25Q197.0879 251.25 196.4472 251.8642Q195.8262 252.4733 195.8262 253.4118Q195.8262 254.1106 196.177 254.5421Q196.4641 254.8962 197.2041 255.2688Q197.4852 255.4092 197.7582 255.5412Q198.0354 255.6754 198.3127 255.8179Q198.3209 255.8221 198.3288 255.8269Q199.1681 256.3368 199.1681 256.9886Q199.1681 257.5392 198.8525 257.8351Q198.5473 258.1214 197.9855 258.1214Q197.4225 258.1214 197.0184 257.7363Q196.8549 257.5843 196.5964 257.1453L195.5 257.6678Q195.8604 258.4105 196.4129 258.8017Q197.046 259.25 197.9532 259.25Q199.0076 259.25 199.7459 258.5737Q200.5 257.8655 200.5 256.8143Q200.5 256.0095 200.072 255.5482Q199.6085 255.0486 198.2142 254.432Q197.6522 254.1876 197.3591 253.9302Q197.0047 253.6192 197.0047 253.2624Q197.0047 252.8796 197.2658 252.6294Q197.519 252.3869 197.8725 252.3869Q198.4599 252.3869 198.857 253.0407ZM214.9011 259.0176L216.25 259.0176L216.25 251.4741L214.9011 251.4741L214.9011 252.1421Q214.9011 252.197 214.8794 252.2475Q214.8577 252.2981 214.8178 252.3363Q214.7985 252.3547 214.7759 252.3691Q214.7534 252.3834 214.7284 252.3931Q214.7034 252.4028 214.677 252.4076Q214.6506 252.4123 214.6238 252.4118Q214.597 252.4113 214.5708 252.4057Q214.5446 252.4 214.52 252.3894Q214.4954 252.3788 214.4734 252.3637Q214.4514 252.3485 214.4328 252.3293Q213.382 251.25 212.0734 251.25Q210.5444 251.25 209.5279 252.372Q208.5 253.5068 208.5 255.221Q208.5 256.9699 209.5273 258.1272Q210.5521 259.25 212.1236 259.25Q213.3567 259.25 214.4428 258.2439Q214.4806 258.2088 214.5288 258.19Q214.577 258.1712 214.6288 258.1712Q214.6556 258.1712 214.6819 258.1764Q214.7082 258.1815 214.733 258.1917Q214.7578 258.2019 214.7801 258.2167Q214.8024 258.2314 214.8213 258.2501Q214.8403 258.2689 214.8552 258.291Q214.8701 258.3131 214.8804 258.3376Q214.8906 258.3622 214.8958 258.3882Q214.9011 258.4143 214.9011 258.4409L214.9011 259.0176ZM209.8824 255.221Q209.8824 254.0333 210.5961 253.2163Q211.3309 252.3952 212.4253 252.3952Q213.5784 252.3952 214.3069 253.2105Q215.0184 254.025 215.0184 255.2625Q215.0184 256.4999 214.3038 257.3179Q213.5775 258.1214 212.4085 258.1214Q211.3038 258.1214 210.5759 257.288Q209.8824 256.4821 209.8824 255.221ZM232.75 259.0965L232.75 251.4741L231.4066 251.4741L231.4066 252.1172Q231.4066 252.1749 231.3827 252.2276Q231.3588 252.2803 231.3151 252.3186Q231.2951 252.3363 231.2719 252.3498Q231.2487 252.3632 231.2234 252.3719Q231.198 252.3807 231.1714 252.3843Q231.1447 252.388 231.1179 252.3864Q231.0911 252.3849 231.065 252.3782Q231.039 252.3716 231.0148 252.36Q230.9906 252.3484 230.9692 252.3324Q230.9477 252.3164 230.9299 252.2966Q229.9869 251.25 228.5643 251.25Q226.9312 251.25 225.9395 252.4598Q225 253.6225 225 255.2956Q225 257.0116 226.0065 258.1463Q226.9914 259.25 228.5391 259.25Q229.8937 259.25 230.9386 258.1942Q230.9771 258.1553 231.0279 258.1342Q231.0786 258.1131 231.1337 258.1131Q231.1605 258.1131 231.1869 258.1182Q231.2133 258.1234 231.2381 258.1336Q231.2629 258.1438 231.2853 258.1585Q231.3076 258.1733 231.3266 258.1921Q231.3456 258.2109 231.3605 258.2329Q231.3755 258.255 231.3858 258.2795Q231.3961 258.3041 231.4013 258.3302Q231.4066 258.3562 231.4066 258.3828L231.4066 259.4375Q231.4066 260.4081 230.8267 260.9124Q230.2263 261.4345 229.0597 261.4345Q227.8002 261.4345 227.1305 260.8174Q226.8891 260.5948 226.7645 260.2321L225.4009 260.2321Q225.6198 261.1383 226.5223 261.6698Q227.5044 262.25 229.0429 262.25Q230.8581 262.25 231.8866 261.4104Q232.4272 260.9779 232.6126 260.3758Q232.6767 260.1483 232.7132 259.8466Q232.75 259.5423 232.75 259.0965ZM231.4821 255.2624Q231.4821 256.4619 230.8432 257.2398Q230.1315 258.1214 228.917 258.1214Q227.7011 258.1214 227.0066 257.2468Q226.3854 256.468 226.3854 255.2707Q226.3854 254.0569 227.0056 253.2793Q227.7089 252.3869 228.917 252.3869Q230.0475 252.3869 230.7745 253.1989Q231.4821 253.981 231.4821 255.2624ZM248.8466 255.416L248.85 255.2459Q248.85 253.3503 247.8398 252.299Q246.8311 251.25 245.0762 251.25Q243.3386 251.25 242.297 252.3303Q241.25 253.4402 241.25 255.2541Q241.25 257.0812 242.327 258.1729Q243.3973 259.25 245.1812 259.25Q245.8114 259.25 246.3464 259.125Q246.8716 259.0024 247.3235 258.7382Q247.7795 258.4716 248.1812 258.0554Q248.5067 257.7182 248.8075 257.27L247.6351 256.6494Q247.0897 257.4176 246.634 257.7378Q246.0782 258.1214 245.2512 258.1214Q244.1877 258.1214 243.4993 257.4587Q242.824 256.7993 242.7376 255.7059Q242.7368 255.6958 242.7368 255.6857Q242.7368 255.6591 242.7423 255.633Q242.7477 255.607 242.7584 255.5824Q242.7691 255.5579 242.7846 255.5358Q242.8002 255.5138 242.82 255.495Q242.8398 255.4762 242.8631 255.4615Q242.8864 255.4467 242.9123 255.4365Q242.9381 255.4263 242.9656 255.4212Q242.993 255.416 243.021 255.416L248.8466 255.416ZM247.3802 254.0906Q247.3895 254.1241 247.3895 254.1587Q247.3895 254.1853 247.384 254.2114Q247.3785 254.2374 247.3678 254.262Q247.3571 254.2865 247.3415 254.3085Q247.326 254.3306 247.3062 254.3494Q247.2864 254.3682 247.2631 254.3829Q247.2399 254.3977 247.214 254.4079Q247.1881 254.4181 247.1606 254.4232Q247.1332 254.4284 247.1052 254.4284L243.1522 254.4284Q243.1156 254.4284 243.0802 254.4196Q243.0531 254.4129 243.0279 254.4013Q243.0027 254.3897 242.9804 254.3736Q242.9581 254.3576 242.9395 254.3377Q242.921 254.3178 242.9068 254.2949Q242.8927 254.272 242.8836 254.2468Q242.8744 254.2217 242.8706 254.1954Q242.8668 254.1691 242.8684 254.1426Q242.8701 254.1161 242.8772 254.0904Q242.9847 253.701 243.1923 253.3915Q243.4014 253.0796 243.6966 252.8565Q243.9926 252.6327 244.3533 252.5139Q244.7134 252.3952 245.12 252.3952Q246.0061 252.3952 246.58 252.827Q247.1507 253.2565 247.3802 254.0906ZM275.3163 262L276.7 262L276.7 251.4741L275.3163 251.4741L275.3163 252.084Q275.3163 252.1377 275.295 252.1873Q275.2737 252.2368 275.2345 252.2747Q275.215 252.2935 275.1921 252.3082Q275.1693 252.323 275.1439 252.3332Q275.1184 252.3434 275.0915 252.3485Q275.0645 252.3537 275.037 252.3537Q275.0094 252.3537 274.9824 252.3485Q274.9555 252.3434 274.93 252.3332Q274.9046 252.323 274.8818 252.3082Q274.8589 252.2935 274.8394 252.2747Q273.7782 251.25 272.4414 251.25Q270.8562 251.25 269.8063 252.3866Q268.75 253.5467 268.75 255.2873Q268.75 257.0015 269.8045 258.1363Q270.8386 259.25 272.407 259.25Q273.7678 259.25 274.8373 258.1942Q274.8767 258.1553 274.9287 258.1342Q274.9806 258.1131 275.0369 258.1131Q275.0645 258.1131 275.0915 258.1182Q275.1184 258.1234 275.1439 258.1336Q275.1693 258.1438 275.1921 258.1585Q275.215 258.1733 275.2344 258.1921Q275.2539 258.2109 275.2692 258.2329Q275.2845 258.255 275.295 258.2795Q275.3055 258.3041 275.3109 258.3302Q275.3163 258.3562 275.3163 258.3828L275.3163 262ZM270.1681 255.2044Q270.1681 254.0333 270.9002 253.2163Q271.6539 252.3952 272.7766 252.3952Q273.9595 252.3952 274.7067 253.2105Q275.4366 254.025 275.4366 255.2624Q275.4366 256.5192 274.695 257.3179Q273.9499 258.1214 272.7594 258.1214Q271.6241 258.1214 270.8892 257.2811Q270.1681 256.4748 270.1681 255.2044ZM290.6441 251.55L290.6441 255.8766Q290.6441 256.9637 290.1802 257.5336Q289.6928 258.1324 288.75 258.1324Q287.8072 258.1324 287.3198 257.5336Q286.8559 256.9637 286.8559 255.8766L286.8559 251.55L285.5 251.55L285.5 255.9177Q285.5 256.9661 285.7165 257.476Q285.7179 257.4792 285.7192 257.4825Q285.9404 258.0447 286.4814 258.5019Q287.3698 259.25 288.75 259.25Q290.1386 259.25 291.0252 258.5034Q291.5565 258.048 291.7701 257.4884Q292 256.8327 292 255.9177L292 251.55L290.6441 251.55ZM308.0966 255.416L308.1 255.2459Q308.1 253.3503 307.0898 252.299Q306.0811 251.25 304.3262 251.25Q302.5886 251.25 301.547 252.3303Q300.5 253.4402 300.5 255.2541Q300.5 257.0812 301.577 258.1729Q302.6473 259.25 304.4312 259.25Q305.0614 259.25 305.5964 259.125Q306.1216 259.0024 306.5735 258.7382Q307.0295 258.4716 307.4312 258.0554Q307.7567 257.7182 308.0575 257.27L306.8851 256.6494Q306.3397 257.4176 305.884 257.7378Q305.3282 258.1214 304.5012 258.1214Q303.4377 258.1214 302.7493 257.4587Q302.074 256.7993 301.9876 255.7059Q301.9868 255.6958 301.9868 255.6857Q301.9868 255.6591 301.9923 255.633Q301.9977 255.607 302.0084 255.5824Q302.0191 255.5579 302.0346 255.5358Q302.0502 255.5138 302.07 255.495Q302.0898 255.4762 302.1131 255.4615Q302.1364 255.4467 302.1622 255.4365Q302.1881 255.4263 302.2156 255.4212Q302.243 255.416 302.271 255.416L308.0966 255.416ZM306.6302 254.0906Q306.6395 254.1241 306.6395 254.1587Q306.6395 254.1853 306.634 254.2114Q306.6285 254.2374 306.6178 254.262Q306.6071 254.2865 306.5915 254.3085Q306.576 254.3306 306.5562 254.3494Q306.5364 254.3682 306.5131 254.3829Q306.4899 254.3977 306.464 254.4079Q306.4381 254.4181 306.4107 254.4232Q306.3832 254.4284 306.3552 254.4284L302.4022 254.4284Q302.3656 254.4284 302.3302 254.4196Q302.3031 254.4129 302.2779 254.4013Q302.2527 254.3897 302.2304 254.3736Q302.2081 254.3576 302.1895 254.3377Q302.171 254.3178 302.1568 254.2949Q302.1427 254.272 302.1336 254.2468Q302.1244 254.2217 302.1206 254.1954Q302.1168 254.1691 302.1184 254.1426Q302.1201 254.1161 302.1272 254.0904Q302.2347 253.701 302.4423 253.3915Q302.6514 253.0796 302.9466 252.8565Q303.2426 252.6327 303.6033 252.5139Q303.9634 252.3952 304.37 252.3952Q305.2561 252.3952 305.83 252.827Q306.4007 253.2565 306.6302 254.0906ZM321.8941 251.55L321.8941 255.8766Q321.8941 256.9637 321.4302 257.5336Q320.9428 258.1324 320 258.1324Q319.0572 258.1324 318.5698 257.5336Q318.1059 256.9637 318.1059 255.8766L318.1059 251.55L316.75 251.55L316.75 255.9177Q316.75 256.9661 316.9665 257.476Q316.9679 257.4792 316.9692 257.4825Q317.1904 258.0447 317.7314 258.5019Q318.6198 259.25 320 259.25Q321.3886 259.25 322.2752 258.5034Q322.8065 258.048 323.0201 257.4884Q323.25 256.8327 323.25 255.9177L323.25 251.55L321.8941 251.55ZM339.5966 255.416L339.6 255.2459Q339.6 253.3503 338.5898 252.299Q337.5811 251.25 335.8262 251.25Q334.0886 251.25 333.047 252.3303Q332 253.4402 332 255.2541Q332 257.0812 333.077 258.1729Q334.1473 259.25 335.9312 259.25Q336.5614 259.25 337.0964 259.125Q337.6216 259.0024 338.0735 258.7382Q338.5295 258.4716 338.9312 258.0554Q339.2567 257.7182 339.5575 257.27L338.3851 256.6494Q337.8397 257.4176 337.384 257.7378Q336.8282 258.1214 336.0012 258.1214Q334.9377 258.1214 334.2493 257.4587Q333.574 256.7993 333.4876 255.7059Q333.4868 255.6958 333.4868 255.6857Q333.4868 255.6591 333.4923 255.633Q333.4977 255.607 333.5084 255.5824Q333.5191 255.5579 333.5346 255.5358Q333.5502 255.5138 333.57 255.495Q333.5898 255.4762 333.6131 255.4615Q333.6364 255.4467 333.6622 255.4365Q333.6881 255.4263 333.7156 255.4212Q333.743 255.416 333.771 255.416L339.5966 255.416ZM338.1302 254.0906Q338.1395 254.1241 338.1395 254.1587Q338.1395 254.1853 338.134 254.2114Q338.1285 254.2374 338.1178 254.262Q338.1071 254.2865 338.0915 254.3085Q338.076 254.3306 338.0562 254.3494Q338.0364 254.3682 338.0131 254.3829Q337.9899 254.3977 337.964 254.4079Q337.9381 254.4181 337.9107 254.4232Q337.8832 254.4284 337.8552 254.4284L333.9022 254.4284Q333.8656 254.4284 333.8302 254.4196Q333.8031 254.4129 333.7779 254.4013Q333.7527 254.3897 333.7304 254.3736Q333.7081 254.3576 333.6895 254.3377Q333.671 254.3178 333.6568 254.2949Q333.6427 254.272 333.6336 254.2468Q333.6244 254.2217 333.6206 254.1954Q333.6168 254.1691 333.6184 254.1426Q333.6201 254.1161 333.6272 254.0904Q333.7347 253.701 333.9423 253.3915Q334.1514 253.0796 334.4466 252.8565Q334.7426 252.6327 335.1033 252.5139Q335.4634 252.3952 335.87 252.3952Q336.7561 252.3952 337.33 252.827Q337.9007 253.2565 338.1302 254.0906Z"/></svg>
