<?xml version="1.0" encoding="utf-8" standalone="no"?>
<!DOCTYPE svg PUBLIC "-//W3C//DTD SVG 1.1//EN"
  "http://www.w3.org/Graphics/SVG/1.1/DTD/svg11.dtd">
<svg xmlns:xlink="http://www.w3.org/1999/xlink" width="460.555078pt" height="275.616594pt" viewBox="0 0 460.555078 275.616594" xmlns="http://www.w3.org/2000/svg" version="1.1">
 <defs>
  <style type="text/css">*{stroke-linejoin: round; stroke-linecap: butt}</style>
 </defs>
 <g id="figure_1">
  <g id="patch_1">
   <path d="M 0 275.616594 
L 460.555078 275.616594 
L 460.555078 0 
L 0 0 
L 0 275.616594 
z
" style="fill: none"/>
  </g>
  <g id="axes_1">
   <g id="patch_2">
    <path d="M 50.155078 110.766316 
L 451.915078 110.766316 
L 451.915078 8.64 
L 50.155078 8.64 
L 50.155078 110.766316 
z
" style="fill: none"/>
   </g>
   <g id="matplotlib.axis_1">
    <g id="xtick_1">
     <g id="line2d_1"/>
    </g>
    <g id="xtick_2">
     <g id="line2d_2"/>
    </g>
    <g id="xtick_3">
     <g id="line2d_3"/>
    </g>
    <g id="xtick_4">
     <g id="line2d_4"/>
    </g>
    <g id="xtick_5">
     <g id="line2d_5"/>
    </g>
   </g>
   <g id="matplotlib.axis_2">
    <g id="ytick_1">
     <g id="line2d_6">
      <path d="M 50.155078 95.832734 
L 451.915078 95.832734 
" clip-path="url(#pa64b2e5c7d)" style="fill: none; stroke: #e6e6e4; stroke-linecap: round"/>
     </g>
     <g id="line2d_7"/>
     <g id="text_1">
      <text style="font-size: 8.5px; font-family: 'Inter', 'Helvetica Neue', 'Arial', sans-serif; text-anchor: end; fill: #52514e" x="44.155078" y="98.867499" transform="rotate(-0 44.155078 98.867499)">5k</text>
     </g>
    </g>
    <g id="ytick_2">
     <g id="line2d_8">
      <path d="M 50.155078 77.897083 
L 451.915078 77.897083 
" clip-path="url(#pa64b2e5c7d)" style="fill: none; stroke: #e6e6e4; stroke-linecap: round"/>
     </g>
     <g id="line2d_9"/>
     <g id="text_2">
      <text style="font-size: 8.5px; font-family: 'Inter', 'Helvetica Neue', 'Arial', sans-serif; text-anchor: end; fill: #52514e" x="44.155078" y="80.931848" transform="rotate(-0 44.155078 80.931848)">10k</text>
     </g>
    </g>
    <g id="ytick_3">
     <g id="line2d_10">
      <path d="M 50.155078 59.961431 
L 451.915078 59.961431 
" clip-path="url(#pa64b2e5c7d)" style="fill: none; stroke: #e6e6e4; stroke-linecap: round"/>
     </g>
     <g id="line2d_11"/>
     <g id="text_3">
      <text style="font-size: 8.5px; font-family: 'Inter', 'Helvetica Neue', 'Arial', sans-serif; text-anchor: end; fill: #52514e" x="44.155078" y="62.996197" transform="rotate(-0 44.155078 62.996197)">15k</text>
     </g>
    </g>
    <g id="ytick_4">
     <g id="line2d_12">
      <path d="M 50.155078 42.02578 
L 451.915078 42.02578 
" clip-path="url(#pa64b2e5c7d)" style="fill: none; stroke: #e6e6e4; stroke-linecap: round"/>
     </g>
     <g id="line2d_13"/>
     <g id="text_4">
      <text style="font-size: 8.5px; font-family: 'Inter', 'Helvetica Neue', 'Arial', sans-serif; text-anchor: end; fill: #52514e" x="44.155078" y="45.060546" transform="rotate(-0 44.155078 45.060546)">20k</text>
     </g>
    </g>
    <g id="ytick_5">
     <g id="line2d_14">
      <path d="M 50.155078 24.090129 
L 451.915078 24.090129 
" clip-path="url(#pa64b2e5c7d)" style="fill: none; stroke: #e6e6e4; stroke-linecap: round"/>
     </g>
     <g id="line2d_15"/>
     <g id="text_5">
      <text style="font-size: 8.5px; font-family: 'Inter', 'Helvetica Neue', 'Arial', sans-serif; text-anchor: end; fill: #52514e" x="44.155078" y="27.124894" transform="rotate(-0 44.155078 27.124894)">25k</text>
     </g>
    </g>
    <g id="text_6">
     <text style="font-size: 8.5px; font-family: 'Inter', 'Helvetica Neue', 'Arial', sans-serif; text-anchor: middle; fill: #52514e" x="14.852969" y="59.703158" transform="rotate(-90 14.852969 59.703158)">Events per second</text>
    </g>
   </g>
   <g id="line2d_16">
    <path d="M 50.155078 104.291187 
L 50.825796 106.124211 
L 51.496514 103.419514 
L 52.167232 100.033263 
L 52.83795 97.629886 
L 53.508667 93.099341 
L 54.179385 86.696313 
L 54.850103 66.924051 
L 55.520821 66.411091 
L 56.862257 59.12563 
L 57.532975 56.542896 
L 58.203692 46.283704 
L 58.87441 46.646004 
L 59.545128 35.242517 
L 60.215846 41.204327 
L 60.886564 31.06351 
L 61.557282 39.96318 
L 62.228 39.895025 
L 62.898718 28.581216 
L 63.569435 30.572073 
L 64.240153 40.077968 
L 64.910871 28.771334 
L 65.581589 29.252009 
L 66.252307 25.302579 
L 66.923025 29.061891 
L 67.593743 28.868186 
L 68.26446 32.028448 
L 68.935178 30.927199 
L 69.605896 25.514219 
L 70.276614 28.71394 
L 70.947332 33.631895 
L 71.61805 27.759763 
L 72.288768 30.98818 
L 72.959485 25.105287 
L 73.630203 22.127968 
L 74.300921 26.540139 
L 74.971639 24.682005 
L 75.642357 29.083414 
L 76.313075 27.078208 
L 76.983793 28.997323 
L 77.654511 29.083414 
L 78.325228 26.809173 
L 78.995946 25.862171 
L 79.666664 21.460762 
L 80.337382 21.604247 
L 81.0081 23.989689 
L 81.678818 26.794825 
L 82.349536 19.760463 
L 83.020253 26.654927 
L 83.690971 20.829427 
L 84.361689 30.439349 
L 85.032407 24.047083 
L 85.703125 26.891677 
L 86.373843 23.900011 
L 87.044561 18.680736 
L 87.715278 22.529727 
L 88.385996 21.539679 
L 89.056714 22.615818 
L 89.727432 20.040259 
L 90.39815 20.90117 
L 91.068868 25.385083 
L 91.739586 25.073002 
L 92.410304 19.850141 
L 93.081021 18.440399 
L 93.751739 13.300041 
L 94.422457 17.073702 
L 95.093175 22.820285 
L 95.763893 21.195315 
L 96.434611 23.103668 
L 97.105329 18.935423 
L 97.776046 27.297023 
L 98.446764 22.956596 
L 99.117482 23.975341 
L 99.7882 14.232695 
L 100.458918 23.103668 
L 101.129636 18.960532 
L 101.800354 21.249122 
L 102.471071 22.522553 
L 103.141789 29.696813 
L 103.812507 19.240329 
L 104.483225 29.377559 
L 105.153943 30.428588 
L 105.824661 31.780936 
L 106.495379 20.754098 
L 107.166096 21.328038 
L 107.836814 29.868996 
L 108.507532 27.279088 
L 109.17825 22.518966 
L 109.848968 26.210123 
L 110.519686 22.357545 
L 111.190404 28.882535 
L 111.861122 28.337291 
L 112.531839 21.72621 
L 113.202557 21.901979 
L 113.873275 19.093256 
L 114.543993 24.524171 
L 115.214711 24.158284 
L 115.885429 19.172173 
L 116.556147 20.43843 
L 117.226864 23.082145 
L 117.897582 27.723892 
L 118.5683 24.219265 
L 119.239018 24.857775 
L 119.909736 19.096843 
L 121.251172 24.258724 
L 121.921889 25.241598 
L 122.592607 19.728178 
L 123.934043 27.454857 
L 124.604761 24.362751 
L 125.275479 26.375131 
L 125.946197 21.403368 
L 126.616915 19.143476 
L 127.287632 19.577519 
L 127.95835 25.464 
L 128.629068 18.680736 
L 129.299786 21.324451 
L 129.970504 23.135952 
L 130.641222 25.923152 
L 131.31194 33.298292 
L 131.982657 24.660482 
L 132.653375 24.581566 
L 133.324093 15.968866 
L 133.994811 24.954627 
L 134.665529 19.577519 
L 135.336247 27.68802 
L 136.006965 15.767987 
L 136.677682 20.047433 
L 137.3484 26.274691 
L 138.019118 30.995354 
L 138.689836 19.448382 
L 139.360554 21.532505 
L 140.031272 21.406955 
L 141.372708 23.910772 
L 142.043425 16.306056 
L 142.714143 23.73859 
L 143.384861 24.671244 
L 144.726297 30.794475 
L 146.067733 20.398972 
L 146.73845 23.580756 
L 147.409168 23.953818 
L 148.079886 22.533314 
L 148.750604 19.695894 
L 149.421322 22.440049 
L 150.09204 20.599851 
L 150.762758 27.479967 
L 151.433475 30.493156 
L 152.104193 31.275151 
L 152.774911 18.93901 
L 153.445629 22.841807 
L 154.116347 26.048702 
L 154.787065 22.009593 
L 155.457783 25.008434 
L 156.1285 18.436811 
L 156.799218 29.047543 
L 157.469936 24.240788 
L 158.140654 25.460412 
L 158.811372 18.601819 
L 159.48209 31.580057 
L 160.152808 20.668006 
L 161.494243 22.206885 
L 162.164961 23.720654 
L 162.835679 18.946184 
L 163.506397 22.676799 
L 164.177115 25.646943 
L 164.847833 26.454048 
L 165.518551 27.705956 
L 166.189268 21.392607 
L 166.859986 22.569185 
L 167.530704 20.603438 
L 168.201422 22.368306 
L 168.87214 21.044655 
L 169.542858 21.668816 
L 170.213576 27.548122 
L 170.884293 18.512141 
L 171.555011 33.95115 
L 172.225729 27.110492 
L 172.896447 16.593026 
L 173.567165 37.631545 
L 174.237883 19.58828 
L 174.908601 23.265089 
L 175.579319 18.626929 
L 176.250036 19.972103 
L 176.920754 20.287771 
L 177.591472 28.839489 
L 178.26219 33.179917 
L 178.932908 27.580406 
L 179.603626 16.384973 
L 180.274344 24.890059 
L 180.945061 22.698322 
L 181.615779 20.061781 
L 182.286497 25.327689 
L 182.957215 19.330007 
L 183.627933 20.689529 
L 184.298651 25.377908 
L 184.969369 34.937611 
L 185.640086 23.874901 
L 186.310804 20.273422 
L 186.981522 22.845395 
L 187.65224 23.27585 
L 188.322958 20.585502 
L 188.993676 21.808714 
L 189.664394 22.260692 
L 190.335112 24.179807 
L 191.005829 24.771683 
L 191.676547 28.559693 
L 192.347265 19.416098 
L 193.017983 23.752938 
L 193.688701 25.847823 
L 194.359419 24.961801 
L 195.030137 17.202839 
L 195.700854 27.071034 
L 196.371572 21.335213 
L 197.04229 22.515379 
L 197.713008 27.483554 
L 198.383726 27.835093 
L 199.054444 34.058764 
L 199.725162 19.986452 
L 200.395879 25.65053 
L 201.066597 22.059813 
L 201.737315 22.687561 
L 202.408033 25.266707 
L 203.078751 27.078208 
L 203.749469 24.014799 
L 204.420187 26.206536 
L 205.090905 24.861362 
L 206.43234 28.857425 
L 207.103058 27.670085 
L 207.773776 21.191727 
L 208.444494 20.764859 
L 209.115212 19.136302 
L 209.78593 21.206076 
L 210.456647 24.692767 
L 211.127365 17.999182 
L 212.468801 32.925231 
L 213.139519 16.406496 
L 213.810237 27.505077 
L 214.480955 17.349911 
L 215.151672 20.391797 
L 215.82239 25.524981 
L 216.493108 20.571154 
L 217.163826 19.799921 
L 217.834544 23.344006 
L 218.505262 28.430556 
L 219.17598 29.779317 
L 219.846697 22.178188 
L 220.517415 29.460063 
L 221.188133 21.421304 
L 221.858851 18.806286 
L 222.529569 26.47557 
L 223.200287 24.506236 
L 223.871005 21.833824 
L 224.541723 22.249931 
L 225.21244 20.983674 
L 225.883158 26.303388 
L 226.553876 29.915628 
L 227.224594 24.667657 
L 227.895312 21.173792 
L 228.56603 20.929867 
L 229.236748 31.271563 
L 229.907465 24.384273 
L 230.578183 25.514219 
L 231.248901 19.247503 
L 231.919619 34.837171 
L 232.590337 26.281865 
L 233.261055 27.336482 
L 233.931773 20.990848 
L 234.60249 21.241947 
L 235.273208 23.509014 
L 235.943926 26.242407 
L 236.614644 30.618706 
L 237.285362 13.282105 
L 237.95608 21.496634 
L 238.626798 27.766937 
L 239.297516 29.467237 
L 239.968233 21.837411 
L 240.638951 21.672403 
L 241.309669 29.262771 
L 241.980387 25.632595 
L 242.651105 20.822253 
L 243.321823 24.115239 
L 243.992541 22.278628 
L 244.663258 21.679577 
L 245.333976 28.165109 
L 246.004694 29.962261 
L 246.675412 20.040259 
L 247.34613 27.354417 
L 248.016848 28.530996 
L 248.687566 20.212441 
L 249.358283 30.518266 
L 250.029001 32.774571 
L 250.699719 34.241707 
L 251.370437 31.780936 
L 252.041155 37.061192 
L 254.053309 22.658864 
L 254.724026 26.522203 
L 255.394744 19.853728 
L 256.065462 23.164649 
L 256.73618 24.330466 
L 257.406898 23.132365 
L 258.748334 26.461222 
L 259.419051 28.871773 
L 260.089769 24.068606 
L 260.760487 21.579138 
L 261.431205 21.28858 
L 262.772641 23.27585 
L 263.443359 25.385083 
L 264.114076 18.243106 
L 264.784794 27.418986 
L 265.455512 23.444445 
L 266.12623 28.287071 
L 266.796948 25.342037 
L 267.467666 13.873982 
L 268.138384 20.754098 
L 268.809101 22.992467 
L 269.479819 23.785223 
L 270.150537 20.510173 
L 270.821255 21.274231 
L 271.491973 23.448032 
L 272.162691 28.462841 
L 272.833409 24.230027 
L 273.504127 30.048352 
L 274.174844 18.5516 
L 274.845562 23.577169 
L 275.51628 29.485173 
L 276.186998 20.061781 
L 276.857716 18.931835 
L 277.528434 24.427319 
L 278.199152 21.019545 
L 278.869869 29.445714 
L 279.540587 28.376749 
L 280.211305 28.208154 
L 280.882023 22.457984 
L 281.552741 17.977659 
L 282.223459 25.022783 
L 282.894177 29.897693 
L 283.564894 21.905566 
L 284.235612 23.996863 
L 284.90633 29.083414 
L 285.577048 30.285103 
L 286.247766 26.339259 
L 287.589202 13.396893 
L 288.25992 17.443176 
L 288.930637 23.110842 
L 289.601355 18.5516 
L 290.272073 25.377908 
L 290.942791 16.557155 
L 291.613509 26.927549 
L 292.284227 29.370384 
L 292.954945 28.082605 
L 293.625662 28.294245 
L 294.29638 21.435652 
L 294.967098 25.220075 
L 295.637816 26.547313 
L 296.979252 23.293786 
L 297.64997 20.689529 
L 298.320687 26.303388 
L 298.991405 26.984943 
L 299.662123 31.895724 
L 301.003559 20.291358 
L 301.674277 21.467937 
L 302.344995 24.897233 
L 303.015713 23.491078 
L 303.68643 24.732225 
L 304.357148 22.98888 
L 305.027866 21.891218 
L 305.698584 28.807205 
L 306.369302 23.910772 
L 307.04002 21.28858 
L 307.710738 24.577978 
L 308.381455 22.01318 
L 309.052173 26.805586 
L 309.722891 18.178538 
L 310.393609 21.453588 
L 311.064327 22.902789 
L 311.735045 17.217187 
L 312.405763 23.58793 
L 313.07648 27.523012 
L 313.747198 23.37629 
L 314.417916 21.571963 
L 315.088634 22.841807 
L 315.759352 23.487491 
L 316.43007 28.771334 
L 317.100788 19.591867 
L 317.771506 26.561661 
L 318.442223 20.312881 
L 319.112941 31.124491 
L 319.783659 29.53898 
L 320.454377 29.384733 
L 321.125095 27.024401 
L 321.795813 22.648102 
L 322.466531 22.386242 
L 323.137248 27.42616 
L 323.807966 23.630976 
L 324.478684 21.973722 
L 325.149402 24.746574 
L 325.82012 23.953818 
L 326.490838 43.837281 
L 327.161556 29.298642 
L 327.832273 20.194505 
L 328.502991 21.048242 
L 329.173709 27.167886 
L 329.844427 26.644165 
L 330.515145 22.856156 
L 331.185863 22.877679 
L 331.856581 21.098462 
L 332.527298 28.534583 
L 333.198016 34.331386 
L 333.868734 34.629117 
L 334.539452 16.080067 
L 335.21017 19.728178 
L 335.880888 25.05148 
L 337.222324 17.436002 
L 337.893041 17.410892 
L 338.563759 26.249581 
L 339.234477 27.580406 
L 339.905195 26.446873 
L 340.575913 22.167427 
L 341.246631 16.216378 
L 341.917349 23.512601 
L 342.588066 25.768906 
L 343.258784 24.22644 
L 343.929502 21.797952 
L 344.60022 22.956596 
L 345.270938 24.63896 
L 345.941656 31.849091 
L 346.612374 29.144395 
L 347.283091 22.318086 
L 347.953809 23.182585 
L 348.624527 21.887631 
L 349.295245 25.385083 
L 349.965963 26.93831 
L 350.636681 22.231995 
L 351.307399 19.530886 
L 351.978117 26.124032 
L 352.648834 24.470365 
L 353.319552 33.710812 
L 353.99027 16.359863 
L 354.660988 25.327689 
L 355.331706 21.116398 
L 356.002424 22.009593 
L 356.673142 22.102859 
L 357.343859 23.717067 
L 358.014577 20.807905 
L 358.685295 23.666847 
L 359.356013 27.519425 
L 360.026731 25.191378 
L 360.697449 25.560852 
L 361.368167 23.397813 
L 362.038884 23.620215 
L 362.709602 31.845504 
L 363.38032 23.049861 
L 364.051038 18.52649 
L 364.721756 23.824681 
L 365.392474 17.722973 
L 366.063192 29.061891 
L 366.73391 26.511442 
L 367.404627 18.142667 
L 368.075345 26.335672 
L 368.746063 20.320055 
L 369.416781 21.284993 
L 370.087499 20.6142 
L 370.758217 22.16384 
L 371.428935 22.368306 
L 372.099652 23.993276 
L 372.77037 29.793666 
L 373.441088 27.512251 
L 374.111806 24.728638 
L 374.782524 24.560043 
L 376.12396 20.75051 
L 376.794677 21.381845 
L 377.465395 19.114779 
L 378.136113 23.530536 
L 378.806831 21.948612 
L 379.477549 33.319815 
L 380.148267 25.101699 
L 380.818985 22.590708 
L 381.489702 24.574391 
L 382.16042 20.144285 
L 382.831138 23.691957 
L 383.501856 24.961801 
L 384.172574 21.475111 
L 384.843292 22.18895 
L 385.51401 24.172633 
L 386.184728 27.221693 
L 386.855445 27.311372 
L 387.526163 21.898392 
L 388.196881 23.178998 
L 388.867599 24.854187 
L 389.538317 25.227249 
L 390.209035 20.309293 
L 390.879753 22.361132 
L 391.55047 15.172523 
L 392.221188 26.479157 
L 392.891906 27.332894 
L 393.562624 30.75143 
L 394.233342 19.760463 
L 395.574778 20.653658 
L 396.245495 29.298642 
L 396.916213 20.104827 
L 397.586931 20.933454 
L 398.257649 21.170205 
L 398.928367 22.970944 
L 399.599085 26.629817 
L 400.269803 25.245185 
L 400.940521 20.660832 
L 401.611238 29.499521 
L 402.281956 27.910422 
L 402.952674 28.979387 
L 403.623392 22.669625 
L 404.29411 19.168586 
L 405.635546 24.065019 
L 406.306263 32.853488 
L 406.976981 19.817857 
L 407.647699 21.435652 
L 408.318417 20.628548 
L 408.989135 27.734653 
L 409.659853 19.060972 
L 410.330571 20.416907 
L 411.001288 27.225281 
L 411.672006 28.48795 
L 412.342724 22.006006 
L 413.013442 28.20098 
L 413.68416 22.619405 
L 414.354878 18.307675 
L 415.025596 18.849331 
L 416.367031 23.42651 
L 417.037749 23.774461 
L 417.708467 17.787541 
L 418.379185 24.552869 
L 419.049903 22.260692 
L 419.720621 27.906835 
L 420.391339 28.222503 
L 421.062056 20.230377 
L 422.403492 25.298992 
L 423.07421 22.099271 
L 423.744928 24.753748 
L 424.415646 22.694735 
L 425.086364 21.227599 
L 425.757081 28.079018 
L 426.427799 25.428128 
L 427.098517 28.380337 
L 427.769235 20.937041 
L 428.439953 24.133174 
L 429.110671 29.377559 
L 429.781389 20.736162 
L 430.452107 27.766937 
L 431.122824 23.100081 
L 431.793542 24.481126 
L 432.46426 33.230137 
L 433.134978 30.622293 
L 433.805696 30.514679 
L 434.476414 19.444795 
L 435.147132 17.105986 
L 435.817849 23.986102 
L 436.488567 21.546853 
L 437.159285 22.210472 
L 437.830003 28.642197 
L 438.500721 26.152729 
L 439.171439 21.539679 
L 439.842157 33.384383 
L 440.512874 24.061432 
L 441.183592 20.965738 
L 441.85431 27.060273 
L 442.525028 21.044655 
L 443.195746 28.918406 
L 443.866464 22.267867 
L 444.537182 33.187091 
L 445.207899 21.729797 
L 445.878617 30.166727 
L 446.549335 28.157934 
L 447.890771 22.784413 
L 448.561489 24.470365 
L 449.232207 23.042687 
L 449.902925 24.768096 
L 450.573642 21.873282 
L 451.24436 25.589549 
L 451.915078 22.98888 
L 451.915078 22.98888 
" clip-path="url(#pa64b2e5c7d)" style="fill: none; stroke: #2a78d6; stroke-width: 1.6; stroke-linecap: round"/>
   </g>
   <g id="patch_3">
    <path d="M 50.155078 110.766316 
L 50.155078 8.64 
" style="fill: none; stroke: #e6e6e4; stroke-linejoin: miter; stroke-linecap: square"/>
   </g>
   <g id="patch_4">
    <path d="M 50.155078 110.766316 
L 451.915078 110.766316 
" style="fill: none; stroke: #e6e6e4; stroke-linejoin: miter; stroke-linecap: square"/>
   </g>
  </g>
  <g id="axes_2">
   <g id="patch_5">
    <path d="M 50.155078 241.488 
L 451.915078 241.488 
L 451.915078 139.361684 
L 50.155078 139.361684 
L 50.155078 241.488 
z
" style="fill: none"/>
   </g>
   <g id="matplotlib.axis_3">
    <g id="xtick_6">
     <g id="line2d_17"/>
     <g id="text_7">
      <text style="font-size: 8.5px; font-family: 'Inter', 'Helvetica Neue', 'Arial', sans-serif; text-anchor: middle; fill: #52514e" x="50.155078" y="253.557531" transform="rotate(-0 50.155078 253.557531)">0</text>
     </g>
    </g>
    <g id="xtick_7">
     <g id="line2d_18"/>
     <g id="text_8">
      <text style="font-size: 8.5px; font-family: 'Inter', 'Helvetica Neue', 'Arial', sans-serif; text-anchor: middle; fill: #52514e" x="130.641222" y="253.557531" transform="rotate(-0 130.641222 253.557531)">2</text>
     </g>
    </g>
    <g id="xtick_8">
     <g id="line2d_19"/>
     <g id="text_9">
      <text style="font-size: 8.5px; font-family: 'Inter', 'Helvetica Neue', 'Arial', sans-serif; text-anchor: middle; fill: #52514e" x="211.127365" y="253.557531" transform="rotate(-0 211.127365 253.557531)">4</text>
     </g>
    </g>
    <g id="xtick_9">
     <g id="line2d_20"/>
     <g id="text_10">
      <text style="font-size: 8.5px; font-family: 'Inter', 'Helvetica Neue', 'Arial', sans-serif; text-anchor: middle; fill: #52514e" x="291.613509" y="253.557531" transform="rotate(-0 291.613509 253.557531)">6</text>
     </g>
    </g>
    <g id="xtick_10">
     <g id="line2d_21"/>
     <g id="text_11">
      <text style="font-size: 8.5px; font-family: 'Inter', 'Helvetica Neue', 'Arial', sans-serif; text-anchor: middle; fill: #52514e" x="372.099652" y="253.557531" transform="rotate(-0 372.099652 253.557531)">8</text>
     </g>
    </g>
    <g id="text_12">
     <text style="font-size: 8.5px; font-family: 'Inter', 'Helvetica Neue', 'Arial', sans-serif; text-anchor: middle; fill: #52514e" x="251.035078" y="265.301828" transform="rotate(-0 251.035078 265.301828)">Minutes into the run</text>
    </g>
   </g>
   <g id="matplotlib.axis_4">
    <g id="ytick_6">
     <g id="line2d_22">
      <path d="M 50.155078 241.488 
L 451.915078 241.488 
" clip-path="url(#pca53185932)" style="fill: none; stroke: #e6e6e4; stroke-linecap: round"/>
     </g>
     <g id="line2d_23"/>
     <g id="text_13">
      <text style="font-size: 8.5px; font-family: 'Inter', 'Helvetica Neue', 'Arial', sans-serif; text-anchor: end; fill: #52514e" x="44.155078" y="244.522766" transform="rotate(-0 44.155078 244.522766)">0</text>
     </g>
    </g>
    <g id="ytick_7">
     <g id="line2d_24">
      <path d="M 50.155078 223.887656 
L 451.915078 223.887656 
" clip-path="url(#pca53185932)" style="fill: none; stroke: #e6e6e4; stroke-linecap: round"/>
     </g>
     <g id="line2d_25"/>
     <g id="text_14">
      <text style="font-size: 8.5px; font-family: 'Inter', 'Helvetica Neue', 'Arial', sans-serif; text-anchor: end; fill: #52514e" x="44.155078" y="226.922422" transform="rotate(-0 44.155078 226.922422)">2500</text>
     </g>
    </g>
    <g id="ytick_8">
     <g id="line2d_26">
      <path d="M 50.155078 206.287312 
L 451.915078 206.287312 
" clip-path="url(#pca53185932)" style="fill: none; stroke: #e6e6e4; stroke-linecap: round"/>
     </g>
     <g id="line2d_27"/>
     <g id="text_15">
      <text style="font-size: 8.5px; font-family: 'Inter', 'Helvetica Neue', 'Arial', sans-serif; text-anchor: end; fill: #52514e" x="44.155078" y="209.322078" transform="rotate(-0 44.155078 209.322078)">5000</text>
     </g>
    </g>
    <g id="ytick_9">
     <g id="line2d_28">
      <path d="M 50.155078 188.686968 
L 451.915078 188.686968 
" clip-path="url(#pca53185932)" style="fill: none; stroke: #e6e6e4; stroke-linecap: round"/>
     </g>
     <g id="line2d_29"/>
     <g id="text_16">
      <text style="font-size: 8.5px; font-family: 'Inter', 'Helvetica Neue', 'Arial', sans-serif; text-anchor: end; fill: #52514e" x="44.155078" y="191.721734" transform="rotate(-0 44.155078 191.721734)">7500</text>
     </g>
    </g>
    <g id="ytick_10">
     <g id="line2d_30">
      <path d="M 50.155078 171.086624 
L 451.915078 171.086624 
" clip-path="url(#pca53185932)" style="fill: none; stroke: #e6e6e4; stroke-linecap: round"/>
     </g>
     <g id="line2d_31"/>
     <g id="text_17">
      <text style="font-size: 8.5px; font-family: 'Inter', 'Helvetica Neue', 'Arial', sans-serif; text-anchor: end; fill: #52514e" x="44.155078" y="174.12139" transform="rotate(-0 44.155078 174.12139)">10000</text>
     </g>
    </g>
    <g id="ytick_11">
     <g id="line2d_32">
      <path d="M 50.155078 153.486281 
L 451.915078 153.486281 
" clip-path="url(#pca53185932)" style="fill: none; stroke: #e6e6e4; stroke-linecap: round"/>
     </g>
     <g id="line2d_33"/>
     <g id="text_18">
      <text style="font-size: 8.5px; font-family: 'Inter', 'Helvetica Neue', 'Arial', sans-serif; text-anchor: end; fill: #52514e" x="44.155078" y="156.521046" transform="rotate(-0 44.155078 156.521046)">12500</text>
     </g>
    </g>
    <g id="text_19">
     <text style="font-size: 8.5px; font-family: 'Inter', 'Helvetica Neue', 'Arial', sans-serif; text-anchor: middle; fill: #52514e" x="14.852969" y="190.424842" transform="rotate(-90 14.852969 190.424842)">End-to-end p99 (ms)</text>
    </g>
   </g>
   <g id="line2d_34">
    <path d="M 50.155078 231.049236 
L 50.825796 239.628066 
L 52.83795 230.126485 
L 53.508667 225.685637 
L 54.179385 220.379767 
L 54.850103 217.380739 
L 55.520821 213.689735 
L 56.191539 214.612486 
L 56.862257 216.688693 
L 57.532975 215.073826 
L 58.203692 214.381781 
L 58.87441 214.151075 
L 59.545128 211.267435 
L 60.215846 213.689735 
L 60.886564 210.344684 
L 61.557282 207.576361 
L 62.228 205.73086 
L 62.898718 202.962537 
L 63.569435 199.271534 
L 64.240153 199.271534 
L 65.581589 193.273548 
L 66.252307 189.121063 
L 66.923025 190.505225 
L 67.593743 187.736972 
L 68.935178 177.355867 
L 69.605896 178.278618 
L 70.276614 178.278618 
L 70.947332 171.819221 
L 71.61805 172.742042 
L 72.288768 171.819221 
L 72.959485 175.510295 
L 73.630203 176.433046 
L 74.300921 162.591572 
L 74.971639 164.437144 
L 75.642357 167.205397 
L 76.313075 169.050969 
L 76.983793 164.437144 
L 77.654511 163.514393 
L 78.325228 168.128218 
L 78.995946 155.209495 
L 79.666664 166.282646 
L 80.337382 145.981846 
L 81.0081 161.668821 
L 81.678818 157.977747 
L 82.349536 161.668821 
L 83.020253 155.209495 
L 83.690971 150.59567 
L 84.361689 163.514393 
L 85.032407 157.977747 
L 85.703125 157.054997 
L 86.373843 155.209495 
L 87.044561 151.518421 
L 87.715278 152.441172 
L 88.385996 159.82332 
L 89.056714 162.591572 
L 89.727432 157.054997 
L 90.39815 156.132246 
L 91.068868 159.82332 
L 91.739586 145.059095 
L 92.410304 157.977747 
L 93.081021 148.750098 
L 93.751739 146.904597 
L 94.422457 156.132246 
L 95.093175 154.286744 
L 95.763893 153.363923 
L 97.105329 155.209495 
L 97.776046 167.205397 
L 98.446764 169.973719 
L 99.7882 162.591572 
L 100.458918 175.510295 
L 101.129636 176.433046 
L 101.800354 158.900569 
L 103.141789 170.89647 
L 103.812507 176.433046 
L 104.483225 166.282646 
L 105.153943 163.514393 
L 105.824661 165.359895 
L 106.495379 171.819221 
L 107.166096 176.433046 
L 107.836814 165.359895 
L 108.507532 174.587544 
L 109.17825 170.89647 
L 109.848968 176.433046 
L 110.519686 177.355867 
L 111.190404 157.054997 
L 111.861122 171.819221 
L 112.531839 159.82332 
L 113.202557 157.977747 
L 113.873275 169.973719 
L 114.543993 166.282646 
L 115.885429 166.282646 
L 116.556147 169.050969 
L 117.226864 167.205397 
L 117.897582 168.128218 
L 118.5683 165.359895 
L 119.239018 168.128218 
L 119.909736 166.282646 
L 120.580454 163.514393 
L 121.251172 168.128218 
L 121.921889 171.819221 
L 122.592607 174.587544 
L 123.263325 167.205397 
L 123.934043 167.205397 
L 124.604761 172.742042 
L 125.275479 171.819221 
L 125.946197 175.510295 
L 126.616915 168.128218 
L 127.287632 175.510295 
L 127.95835 164.437144 
L 128.629068 157.054997 
L 129.299786 172.742042 
L 129.970504 174.587544 
L 130.641222 161.668821 
L 131.982657 179.201369 
L 132.653375 170.89647 
L 133.324093 181.969691 
L 133.994811 176.433046 
L 134.665529 183.123148 
L 135.336247 171.819221 
L 136.006965 171.819221 
L 136.677682 176.433046 
L 137.3484 187.736972 
L 138.019118 175.510295 
L 138.689836 176.433046 
L 139.360554 179.201369 
L 140.031272 186.814151 
L 140.70199 177.355867 
L 141.372708 181.04687 
L 142.043425 180.124119 
L 142.714143 176.433046 
L 143.384861 181.969691 
L 144.726297 186.814151 
L 145.397015 190.043884 
L 146.067733 182.661737 
L 146.73845 181.969691 
L 147.409168 180.124119 
L 148.079886 173.664793 
L 148.750604 190.505225 
L 149.421322 179.201369 
L 150.09204 181.969691 
L 150.762758 187.275562 
L 151.433475 178.278618 
L 152.104193 176.433046 
L 152.774911 182.661737 
L 153.445629 186.814151 
L 154.116347 183.123148 
L 154.787065 184.045898 
L 155.457783 181.969691 
L 156.1285 179.201369 
L 156.799218 186.352811 
L 157.469936 184.045898 
L 158.140654 178.278618 
L 158.811372 186.352811 
L 159.48209 184.507239 
L 160.152808 172.742042 
L 160.823526 184.045898 
L 161.494243 184.968649 
L 162.164961 181.969691 
L 162.835679 183.584488 
L 163.506397 188.198312 
L 164.177115 186.814151 
L 164.847833 184.507239 
L 165.518551 183.584488 
L 166.189268 181.04687 
L 166.859986 183.123148 
L 167.530704 181.969691 
L 168.201422 187.275562 
L 168.87214 181.969691 
L 169.542858 189.121063 
L 170.213576 191.889386 
L 170.884293 190.966635 
L 171.555011 177.355867 
L 172.225729 181.04687 
L 172.896447 186.814151 
L 173.567165 184.968649 
L 174.237883 181.969691 
L 174.908601 190.043884 
L 175.579319 189.582474 
L 176.250036 184.507239 
L 176.920754 187.275562 
L 177.591472 184.968649 
L 179.603626 183.584488 
L 180.274344 187.736972 
L 180.945061 185.43006 
L 181.615779 183.584488 
L 182.286497 189.121063 
L 182.957215 189.121063 
L 183.627933 191.427975 
L 184.969369 181.969691 
L 185.640086 182.661737 
L 186.310804 181.04687 
L 186.981522 184.968649 
L 187.65224 189.582474 
L 188.322958 186.814151 
L 188.993676 190.505225 
L 189.664394 184.507239 
L 190.335112 191.427975 
L 191.005829 176.433046 
L 191.676547 190.505225 
L 192.347265 187.275562 
L 193.017983 190.966635 
L 193.688701 191.889386 
L 194.359419 191.427975 
L 195.030137 186.814151 
L 195.700854 190.043884 
L 196.371572 187.736972 
L 197.04229 187.736972 
L 197.713008 189.582474 
L 198.383726 190.505225 
L 199.054444 196.964621 
L 199.725162 196.964621 
L 200.395879 191.427975 
L 201.737315 184.507239 
L 202.408033 186.814151 
L 203.078751 188.659723 
L 203.749469 187.736972 
L 204.420187 178.278618 
L 205.090905 188.198312 
L 205.761622 180.124119 
L 206.43234 189.121063 
L 207.103058 181.969691 
L 207.773776 181.04687 
L 208.444494 185.8914 
L 209.115212 184.507239 
L 209.78593 184.507239 
L 210.456647 181.969691 
L 211.127365 189.121063 
L 211.798083 188.659723 
L 212.468801 186.352811 
L 213.139519 186.352811 
L 213.810237 187.275562 
L 214.480955 191.427975 
L 215.151672 188.659723 
L 215.82239 191.427975 
L 216.493108 192.812137 
L 217.163826 190.043884 
L 217.834544 193.273548 
L 218.505262 191.427975 
L 219.17598 191.427975 
L 219.846697 188.198312 
L 220.517415 186.352811 
L 221.188133 195.119049 
L 221.858851 190.505225 
L 222.529569 189.582474 
L 223.200287 190.043884 
L 223.871005 193.273548 
L 224.541723 191.889386 
L 225.21244 188.659723 
L 226.553876 194.657709 
L 227.224594 185.43006 
L 227.895312 199.271534 
L 228.56603 192.350797 
L 229.236748 193.734888 
L 229.907465 187.275562 
L 230.578183 186.814151 
L 231.919619 194.657709 
L 232.590337 193.734888 
L 233.261055 185.8914 
L 233.931773 186.814151 
L 234.60249 189.582474 
L 235.943926 186.814151 
L 236.614644 181.969691 
L 237.285362 189.582474 
L 237.95608 189.121063 
L 238.626798 188.198312 
L 239.297516 182.661737 
L 239.968233 186.814151 
L 240.638951 186.352811 
L 241.309669 183.584488 
L 241.980387 190.505225 
L 242.651105 185.8914 
L 243.321823 190.966635 
L 243.992541 192.812137 
L 244.663258 181.969691 
L 245.333976 188.198312 
L 246.004694 187.736972 
L 246.675412 190.505225 
L 247.34613 186.352811 
L 248.016848 183.123148 
L 248.687566 183.123148 
L 249.358283 188.659723 
L 250.029001 180.124119 
L 250.699719 181.969691 
L 251.370437 179.201369 
L 252.041155 175.510295 
L 252.711873 181.969691 
L 253.382591 181.969691 
L 254.053309 181.04687 
L 254.724026 174.587544 
L 255.394744 182.661737 
L 256.065462 176.433046 
L 256.73618 172.742042 
L 257.406898 167.205397 
L 258.077616 177.355867 
L 258.748334 161.668821 
L 259.419051 162.591572 
L 260.089769 166.282646 
L 260.760487 172.742042 
L 261.431205 173.664793 
L 262.101923 163.514393 
L 262.772641 158.900569 
L 263.443359 157.977747 
L 264.114076 169.973719 
L 264.784794 173.664793 
L 265.455512 157.054997 
L 266.12623 161.668821 
L 266.796948 164.437144 
L 267.467666 164.437144 
L 268.138384 168.128218 
L 268.809101 163.514393 
L 269.479819 157.977747 
L 270.821255 176.433046 
L 271.491973 171.819221 
L 272.162691 169.973719 
L 272.833409 163.514393 
L 273.504127 161.668821 
L 274.174844 172.742042 
L 274.845562 168.128218 
L 275.51628 167.205397 
L 276.186998 168.128218 
L 276.857716 169.973719 
L 277.528434 166.282646 
L 278.199152 166.282646 
L 278.869869 175.510295 
L 279.540587 176.433046 
L 280.211305 169.050969 
L 280.882023 173.664793 
L 281.552741 155.209495 
L 282.223459 175.510295 
L 282.894177 170.89647 
L 283.564894 179.201369 
L 284.235612 168.128218 
L 284.90633 171.819221 
L 285.577048 168.128218 
L 286.247766 177.355867 
L 286.918484 176.433046 
L 288.25992 169.050969 
L 289.601355 167.205397 
L 290.272073 181.04687 
L 290.942791 178.278618 
L 291.613509 173.664793 
L 292.284227 181.969691 
L 293.625662 181.969691 
L 294.29638 184.507239 
L 294.967098 179.201369 
L 295.637816 181.04687 
L 296.308534 170.89647 
L 296.979252 176.433046 
L 297.64997 173.664793 
L 298.320687 166.282646 
L 298.991405 174.587544 
L 299.662123 165.359895 
L 300.332841 181.969691 
L 301.003559 172.742042 
L 301.674277 174.587544 
L 302.344995 170.89647 
L 303.015713 180.124119 
L 303.68643 167.205397 
L 304.357148 175.510295 
L 305.027866 170.89647 
L 305.698584 173.664793 
L 306.369302 167.205397 
L 307.710738 167.205397 
L 308.381455 157.977747 
L 309.052173 171.819221 
L 309.722891 173.664793 
L 311.735045 162.591572 
L 312.405763 178.278618 
L 313.07648 177.355867 
L 313.747198 170.89647 
L 314.417916 174.587544 
L 315.759352 157.977747 
L 316.43007 169.050969 
L 317.100788 175.510295 
L 317.771506 175.510295 
L 318.442223 171.819221 
L 319.112941 173.664793 
L 319.783659 177.355867 
L 320.454377 165.359895 
L 321.125095 174.587544 
L 321.795813 174.587544 
L 322.466531 163.514393 
L 323.137248 175.510295 
L 323.807966 172.742042 
L 324.478684 171.819221 
L 325.149402 166.282646 
L 325.82012 164.437144 
L 326.490838 170.89647 
L 327.161556 162.591572 
L 328.502991 177.355867 
L 329.173709 167.205397 
L 329.844427 172.742042 
L 330.515145 161.668821 
L 331.185863 165.359895 
L 331.856581 160.74607 
L 332.527298 172.742042 
L 333.198016 169.973719 
L 333.868734 155.209495 
L 334.539452 162.591572 
L 335.21017 159.82332 
L 336.551606 173.664793 
L 337.222324 157.054997 
L 338.563759 162.591572 
L 339.234477 160.74607 
L 339.905195 167.205397 
L 340.575913 163.514393 
L 341.246631 176.433046 
L 341.917349 153.363923 
L 342.588066 159.82332 
L 343.258784 162.591572 
L 343.929502 166.282646 
L 344.60022 161.668821 
L 345.270938 174.587544 
L 345.941656 161.668821 
L 346.612374 159.82332 
L 347.283091 153.363923 
L 347.953809 166.282646 
L 348.624527 167.205397 
L 349.295245 160.74607 
L 349.965963 163.514393 
L 350.636681 153.363923 
L 351.307399 157.977747 
L 351.978117 159.82332 
L 352.648834 164.437144 
L 353.319552 144.136274 
L 353.99027 154.286744 
L 354.660988 161.668821 
L 355.331706 159.82332 
L 356.002424 165.359895 
L 356.673142 163.514393 
L 358.014577 169.050969 
L 358.685295 160.74607 
L 359.356013 160.74607 
L 360.026731 163.514393 
L 360.697449 163.514393 
L 361.368167 169.050969 
L 362.038884 172.742042 
L 362.709602 170.89647 
L 363.38032 165.359895 
L 364.051038 157.977747 
L 364.721756 170.89647 
L 365.392474 159.82332 
L 366.063192 157.977747 
L 366.73391 166.282646 
L 367.404627 168.128218 
L 368.746063 156.132246 
L 369.416781 156.132246 
L 370.087499 166.282646 
L 370.758217 161.668821 
L 371.428935 160.74607 
L 372.099652 172.742042 
L 372.77037 163.514393 
L 373.441088 172.742042 
L 374.111806 162.591572 
L 374.782524 164.437144 
L 375.453242 173.664793 
L 376.12396 166.282646 
L 376.794677 161.668821 
L 378.136113 165.359895 
L 378.806831 166.282646 
L 379.477549 149.67292 
L 380.148267 157.054997 
L 380.818985 167.205397 
L 381.489702 171.819221 
L 382.16042 163.514393 
L 382.831138 164.437144 
L 383.501856 171.819221 
L 384.172574 160.74607 
L 384.843292 153.363923 
L 385.51401 171.819221 
L 386.184728 168.128218 
L 386.855445 172.742042 
L 387.526163 161.668821 
L 388.196881 173.664793 
L 389.538317 168.128218 
L 390.209035 169.050969 
L 390.879753 174.587544 
L 391.55047 167.205397 
L 392.221188 172.742042 
L 392.891906 169.050969 
L 393.562624 174.587544 
L 394.233342 170.89647 
L 394.90406 169.973719 
L 395.574778 173.664793 
L 396.245495 180.124119 
L 396.916213 163.514393 
L 397.586931 159.82332 
L 398.257649 169.050969 
L 398.928367 165.359895 
L 399.599085 175.510295 
L 400.269803 152.441172 
L 400.940521 174.587544 
L 401.611238 175.510295 
L 402.281956 167.205397 
L 402.952674 171.819221 
L 403.623392 167.205397 
L 404.964828 181.04687 
L 405.635546 168.128218 
L 406.306263 177.355867 
L 406.976981 171.819221 
L 407.647699 180.124119 
L 408.318417 170.89647 
L 408.989135 180.124119 
L 409.659853 173.664793 
L 410.330571 172.742042 
L 411.001288 169.973719 
L 411.672006 178.278618 
L 413.013442 170.89647 
L 413.68416 173.664793 
L 414.354878 167.205397 
L 415.025596 174.587544 
L 415.696314 172.742042 
L 416.367031 177.355867 
L 417.037749 183.123148 
L 417.708467 178.278618 
L 418.379185 171.819221 
L 419.720621 177.355867 
L 420.391339 163.514393 
L 421.062056 174.587544 
L 421.732774 182.661737 
L 422.403492 183.123148 
L 423.07421 189.121063 
L 423.744928 173.664793 
L 424.415646 177.355867 
L 425.086364 177.355867 
L 425.757081 187.736972 
L 426.427799 184.045898 
L 427.098517 182.661737 
L 427.769235 169.973719 
L 428.439953 181.04687 
L 429.110671 177.355867 
L 429.781389 181.04687 
L 430.452107 173.664793 
L 431.122824 181.04687 
L 431.793542 177.355867 
L 432.46426 170.89647 
L 433.134978 181.969691 
L 433.805696 181.04687 
L 434.476414 177.355867 
L 435.147132 178.278618 
L 435.817849 181.04687 
L 436.488567 175.510295 
L 437.159285 175.510295 
L 437.830003 180.124119 
L 439.171439 180.124119 
L 439.842157 174.587544 
L 440.512874 170.89647 
L 441.183592 181.04687 
L 441.85431 179.201369 
L 442.525028 166.282646 
L 443.195746 169.050969 
L 443.866464 176.433046 
L 444.537182 170.89647 
L 445.207899 161.668821 
L 446.549335 171.819221 
L 447.220053 159.82332 
L 447.890771 164.437144 
L 448.561489 172.742042 
L 449.232207 171.819221 
L 449.902925 166.282646 
L 450.573642 154.286744 
L 451.24436 168.128218 
L 451.915078 168.128218 
L 451.915078 168.128218 
" clip-path="url(#pca53185932)" style="fill: none; stroke: #eb6834; stroke-width: 1.6; stroke-linecap: round"/>
   </g>
   <g id="patch_6">
    <path d="M 50.155078 241.488 
L 50.155078 139.361684 
" style="fill: none; stroke: #e6e6e4; stroke-linejoin: miter; stroke-linecap: square"/>
   </g>
   <g id="patch_7">
    <path d="M 50.155078 241.488 
L 451.915078 241.488 
" style="fill: none; stroke: #e6e6e4; stroke-linejoin: miter; stroke-linecap: square"/>
   </g>
  </g>
 </g>
 <defs>
  <clipPath id="pa64b2e5c7d">
   <rect x="50.155078" y="8.64" width="401.76" height="102.126316"/>
  </clipPath>
  <clipPath id="pca53185932">
   <rect x="50.155078" y="139.361684" width="401.76" height="102.126316"/>
  </clipPath>
 </defs>
</svg>
