<svg xmlns="http://www.w3.org/2000/svg" viewBox="0 0 900 790" width="900" height="790" role="img" aria-label="Queen vs Kafka by partitions"><title>Queen vs Kafka by partitions</title>
<style>
  svg { font-family: system-ui, -apple-system, "Segoe UI", sans-serif; }
  .bg { fill: #fcfcfb; } .ink { fill: #0b0b0b; } .ink2 { fill: #52514e; } .muted { fill: #898781; }
  .grid { stroke: #e1e0d9; stroke-width: 1; } .axis { stroke: #c3c2b7; stroke-width: 1; }
  .ref { stroke: #898781; stroke-width: 1; stroke-dasharray: 3 4; }
  .k { stroke: #2a78d6; } .kf { fill: #2a78d6; } .q { stroke: #eb6834; } .qf { fill: #eb6834; }
  .ring { stroke: #fcfcfb; } .hollow { fill: #fcfcfb; }
  .line { fill: none; stroke-width: 2; stroke-linejoin: round; stroke-linecap: round; }
  .dash { stroke-dasharray: 5 4; }
  text { font-size: 12px; } .t { font-size: 15px; font-weight: 600; } .st { font-size: 12px; }
  .lab { font-size: 12px; font-weight: 600; } .small { font-size: 11px; }
  @media (prefers-color-scheme: dark) {
    .bg { fill: #1a1a19; } .ink { fill: #ffffff; } .ink2 { fill: #c3c2b7; }
    .grid { stroke: #2c2c2a; } .axis { stroke: #383835; }
    .k { stroke: #3987e5; } .kf { fill: #3987e5; } .q { stroke: #d95926; } .qf { fill: #d95926; }
    .ring { stroke: #1a1a19; } .hollow { fill: #1a1a19; }
  }
</style><rect class="bg" width="900" height="790" rx="8"/><text class="ink t" x="24" y="34">Partitions: Queen stays flat up to 1M, Kafka falls off past 10k</text><text class="ink2 st" x="24" y="56">1 topic / queue × N partitions · 1M msg/s offered · 256 B JSON in 100-message units · same 3 brokers × 16 vCPU · 60 s, last 30 s</text><text class="ink2 st" x="24" y="74">Kafka 4.3.1: RF 3, acks=all, lz4, 8 replica fetchers · Queen final build: raft 3 nodes, dedup off</text><line x1="24" x2="44" y1="100" y2="100" class="line k"/><circle cx="34" cy="100" r="4.5" class="kf ring" stroke-width="2"/><text class="ink2 small" x="52" y="104">Kafka</text><line x1="104" x2="124" y1="100" y2="100" class="line q"/><circle cx="114" cy="100" r="4.5" class="qf ring" stroke-width="2"/><text class="ink2 small" x="132" y="104">Queen</text><line x1="190" x2="214" y1="100" y2="100" class="line" style="stroke:#898781"/><text class="ink2 small" x="220" y="104">p99</text><line x1="258" x2="282" y1="100" y2="100" class="line dash" style="stroke:#898781"/><text class="ink2 small" x="288" y="104">p50</text><line class="grid" x1="80" x2="780" y1="461.6" y2="461.6"/><text class="muted" x="72" y="465.6" text-anchor="end">10 ms</text><line class="grid" x1="80" x2="780" y1="367.2" y2="367.2"/><text class="muted" x="72" y="371.2" text-anchor="end">100 ms</text><line class="grid" x1="80" x2="780" y1="272.8" y2="272.8"/><text class="muted" x="72" y="276.8" text-anchor="end">1 s</text><line class="grid" x1="80" x2="780" y1="178.4" y2="178.4"/><text class="muted" x="72" y="182.4" text-anchor="end">10 s</text><line class="axis" x1="80" x2="780" y1="490" y2="490"/><line class="axis" x1="116.8" x2="116.8" y1="490" y2="494"/><text class="muted" x="116.8" y="508" text-anchor="middle">200</text><line class="axis" x1="282.6" x2="282.6" y1="490" y2="494"/><text class="muted" x="282.6" y="508" text-anchor="middle">2k</text><line class="axis" x1="398.5" x2="398.5" y1="490" y2="494"/><text class="muted" x="398.5" y="508" text-anchor="middle">10k</text><line class="axis" x1="514.4" x2="514.4" y1="490" y2="494"/><text class="muted" x="514.4" y="508" text-anchor="middle">50k</text><line class="axis" x1="564.3" x2="564.3" y1="490" y2="494"/><text class="muted" x="564.3" y="508" text-anchor="middle">100k</text><line class="axis" x1="730.1" x2="730.1" y1="490" y2="494"/><text class="muted" x="730.1" y="508" text-anchor="middle">1M</text><text class="ink2" x="80" y="138">end-to-end latency, producer to consumer (log scale)</text><path class="line k" d="M116.8,437.5 L282.6,340.0 L398.5,399.0 L514.4,257.1 L564.3,174.7"/><path class="line k dash" d="M116.8,470.7 L282.6,465.9 L398.5,445.0 L514.4,287.9 L564.3,232.5"/><path class="line q" d="M116.8,353.4 L398.5,359.0 L514.4,356.8 L564.3,356.8 L730.1,364.0"/><path class="line q dash" d="M116.8,391.7 L398.5,399.0 L514.4,399.9 L564.3,399.9 L730.1,404.8"/><circle cx="116.8" cy="437.5" r="4.5" class="kf ring" stroke-width="2"><title>Kafka 1 topic × 200 partitions: in 999k / out 999k, e2e p50 8 ms, p99 18 ms</title></circle><circle cx="116.8" cy="470.7" r="4.5" class="kf ring" stroke-width="2"><title>Kafka 1 topic × 200 partitions: in 999k / out 999k, e2e p50 8 ms, p99 18 ms</title></circle><circle cx="282.6" cy="340.0" r="4.5" class="kf ring" stroke-width="2"><title>Kafka 1 topic × 2,000 partitions: in 1000k / out 1000k, e2e p50 9 ms, p99 194 ms</title></circle><circle cx="282.6" cy="465.9" r="4.5" class="kf ring" stroke-width="2"><title>Kafka 1 topic × 2,000 partitions: in 1000k / out 1000k, e2e p50 9 ms, p99 194 ms</title></circle><circle cx="398.5" cy="399.0" r="4.5" class="kf ring" stroke-width="2"><title>Kafka 1 topic × 10,000 partitions: in 1000k / out 1000k, e2e p50 15 ms, p99 46 ms</title></circle><circle cx="398.5" cy="445.0" r="4.5" class="kf ring" stroke-width="2"><title>Kafka 1 topic × 10,000 partitions: in 1000k / out 1000k, e2e p50 15 ms, p99 46 ms</title></circle><circle cx="514.4" cy="257.1" r="4.5" class="kf ring" stroke-width="2"><title>Kafka 1 topic × 50,000 partitions: in 993k / out 989k, e2e p50 692 ms, p99 1.5 s</title></circle><circle cx="514.4" cy="287.9" r="4.5" class="kf ring" stroke-width="2"><title>Kafka 1 topic × 50,000 partitions: in 993k / out 989k, e2e p50 692 ms, p99 1.5 s</title></circle><circle cx="564.3" cy="174.7" r="4.5" class="kf ring" stroke-width="2"><title>Kafka 1 topic × 100,000 partitions: in 1032k / out 1167k, e2e p50 2.7 s, p99 10.9 s</title></circle><circle cx="564.3" cy="232.5" r="4.5" class="kf ring" stroke-width="2"><title>Kafka 1 topic × 100,000 partitions: in 1032k / out 1167k, e2e p50 2.7 s, p99 10.9 s</title></circle><circle cx="116.8" cy="353.4" r="4.5" class="qf ring" stroke-width="2"><title>Queen 1 queue × 200 partitions: in 1000k / out 1001k, e2e p50 55 ms, p99 140 ms</title></circle><circle cx="116.8" cy="391.7" r="4.5" class="qf ring" stroke-width="2"><title>Queen 1 queue × 200 partitions: in 1000k / out 1001k, e2e p50 55 ms, p99 140 ms</title></circle><circle cx="398.5" cy="359.0" r="4.5" class="qf ring" stroke-width="2"><title>Queen 1 queue × 10,000 partitions: in 1000k / out 1000k, e2e p50 46 ms, p99 122 ms</title></circle><circle cx="398.5" cy="399.0" r="4.5" class="qf ring" stroke-width="2"><title>Queen 1 queue × 10,000 partitions: in 1000k / out 1000k, e2e p50 46 ms, p99 122 ms</title></circle><circle cx="514.4" cy="356.8" r="4.5" class="qf ring" stroke-width="2"><title>Queen 1 queue × 50,000 partitions: in 1000k / out 999k, e2e p50 45 ms, p99 129 ms</title></circle><circle cx="514.4" cy="399.9" r="4.5" class="qf ring" stroke-width="2"><title>Queen 1 queue × 50,000 partitions: in 1000k / out 999k, e2e p50 45 ms, p99 129 ms</title></circle><circle cx="564.3" cy="356.8" r="4.5" class="qf ring" stroke-width="2"><title>Queen 1 queue × 100,000 partitions: in 1000k / out 1001k, e2e p50 45 ms, p99 129 ms</title></circle><circle cx="564.3" cy="399.9" r="4.5" class="qf ring" stroke-width="2"><title>Queen 1 queue × 100,000 partitions: in 1000k / out 1001k, e2e p50 45 ms, p99 129 ms</title></circle><circle cx="730.1" cy="364.0" r="4.5" class="qf ring" stroke-width="2"><title>Queen 1 queue × 1,000,000 partitions: in 1000k / out 1000k, e2e p50 40 ms, p99 108 ms</title></circle><circle cx="730.1" cy="404.8" r="4.5" class="qf ring" stroke-width="2"><title>Queen 1 queue × 1,000,000 partitions: in 1000k / out 1000k, e2e p50 40 ms, p99 108 ms</title></circle><text class="ink lab" x="574.3" y="178.7" text-anchor="start">Kafka p99 10.9 s</text><text class="ink2 small" x="574.3" y="236.5" text-anchor="start">p50 2.7 s</text><text class="ink lab" x="720.1" y="354.0" text-anchor="end">Queen p99 108 ms</text><text class="ink2 small" x="720.1" y="420.8" text-anchor="end">p50 40 ms</text><text class="muted small" x="730.1" y="187.6" text-anchor="middle">no Kafka run:</text><text class="muted small" x="730.1" y="201.6" text-anchor="middle">saturated at 100k</text><text class="muted small" x="282.6" y="328.0" text-anchor="middle">one 10-s spike</text><line class="grid" x1="80" x2="780" y1="710.0" y2="710.0"/><text class="muted" x="72" y="714.0" text-anchor="end">0</text><line class="grid" x1="80" x2="780" y1="672.5" y2="672.5"/><text class="muted" x="72" y="676.5" text-anchor="end">4</text><line class="grid" x1="80" x2="780" y1="635.0" y2="635.0"/><text class="muted" x="72" y="639.0" text-anchor="end">8</text><line class="grid" x1="80" x2="780" y1="597.5" y2="597.5"/><text class="muted" x="72" y="601.5" text-anchor="end">12</text><line class="grid" x1="80" x2="780" y1="560.0" y2="560.0"/><text class="muted" x="72" y="564.0" text-anchor="end">16</text><line class="axis" x1="80" x2="780" y1="710" y2="710"/><line class="axis" x1="116.8" x2="116.8" y1="710" y2="714"/><text class="muted" x="116.8" y="728" text-anchor="middle">200</text><line class="axis" x1="282.6" x2="282.6" y1="710" y2="714"/><text class="muted" x="282.6" y="728" text-anchor="middle">2k</text><line class="axis" x1="398.5" x2="398.5" y1="710" y2="714"/><text class="muted" x="398.5" y="728" text-anchor="middle">10k</text><line class="axis" x1="514.4" x2="514.4" y1="710" y2="714"/><text class="muted" x="514.4" y="728" text-anchor="middle">50k</text><line class="axis" x1="564.3" x2="564.3" y1="710" y2="714"/><text class="muted" x="564.3" y="728" text-anchor="middle">100k</text><line class="axis" x1="730.1" x2="730.1" y1="710" y2="714"/><text class="muted" x="730.1" y="728" text-anchor="middle">1M</text><text class="ink2" x="430.0" y="746" text-anchor="middle">partitions (1 topic / 1 queue)</text><text class="ink2" x="80" y="548">CPU of the busiest node's broker process (cores of 16)</text><path class="line k" d="M116.8,668.3 L282.6,652.8 L398.5,617.2 L514.4,614.8 L564.3,603.5"/><path class="line q" d="M116.8,626.6 L398.5,621.9 L514.4,620.9 L564.3,621.9 L730.1,622.8"/><circle cx="116.8" cy="668.3" r="4.5" class="kf ring" stroke-width="2"><title>Kafka 1 topic × 200: busiest broker JVM 4.4 cores (load-window average)</title></circle><circle cx="282.6" cy="652.8" r="4.5" class="kf ring" stroke-width="2"><title>Kafka 1 topic × 2,000: busiest broker JVM 6.1 cores (load-window average)</title></circle><circle cx="398.5" cy="617.2" r="4.5" class="kf ring" stroke-width="2"><title>Kafka 1 topic × 10,000: busiest broker JVM 9.9 cores (load-window average)</title></circle><circle cx="514.4" cy="614.8" r="4.5" class="kf ring" stroke-width="2"><title>Kafka 1 topic × 50,000: busiest broker JVM 10.1 cores (load-window average)</title></circle><circle cx="564.3" cy="603.5" r="4.5" class="kf ring" stroke-width="2"><title>Kafka 1 topic × 100,000: busiest broker JVM 11.4 cores (load-window average)</title></circle><circle cx="116.8" cy="626.6" r="4.5" class="qf ring" stroke-width="2"><title>Queen 1 queue × 200: leader 8.9 cores (3-s sample)</title></circle><circle cx="398.5" cy="621.9" r="4.5" class="qf ring" stroke-width="2"><title>Queen 1 queue × 10,000: leader 9.4 cores (3-s sample)</title></circle><circle cx="514.4" cy="620.9" r="4.5" class="qf ring" stroke-width="2"><title>Queen 1 queue × 50,000: leader 9.5 cores (3-s sample)</title></circle><circle cx="564.3" cy="621.9" r="4.5" class="qf ring" stroke-width="2"><title>Queen 1 queue × 100,000: leader 9.4 cores (3-s sample)</title></circle><circle cx="730.1" cy="622.8" r="4.5" class="qf ring" stroke-width="2"><title>Queen 1 queue × 1,000,000: leader 9.3 cores (3-s sample)</title></circle><text class="ink lab" x="564.3" y="591.5" text-anchor="middle">Kafka 11.4</text><text class="ink lab" x="720.1" y="642.8" text-anchor="end">Queen 9.3</text><text class="muted small" x="24" y="774">Every point delivered in ≈ out; Kafka at 100k (in 1.03M, out 1.17M) caught up only after multi-second stalls. Hover a mark for its numbers.</text></svg>
