<?xml version='1.0' encoding='utf-8'?>
<svg xmlns="http://www.w3.org/2000/svg" width="951" height="923" viewBox="0 0 951 923" version="1.1" xml:space="preserve" style="fill-rule:evenodd;clip-rule:evenodd;">
    <defs><linearGradient id="bands" gradientUnits="userSpaceOnUse" x1="0" y1="26.0" x2="0" y2="948.0"><stop offset="0.0" stop-color="#ED1C24" /><stop offset="0.14285714285714285" stop-color="#ED1C24" /><stop offset="0.14285714285714285" stop-color="#F7941E" /><stop offset="0.2857142857142857" stop-color="#F7941E" /><stop offset="0.2857142857142857" stop-color="#FFD200" /><stop offset="0.42857142857142855" stop-color="#FFD200" /><stop offset="0.42857142857142855" stop-color="#39B54A" /><stop offset="0.5714285714285714" stop-color="#39B54A" /><stop offset="0.5714285714285714" stop-color="#00A877" /><stop offset="0.7142857142857143" stop-color="#00A877" /><stop offset="0.7142857142857143" stop-color="#00AEEF" /><stop offset="0.8571428571428571" stop-color="#00AEEF" /><stop offset="0.8571428571428571" stop-color="#22DDEE" /><stop offset="1.0" stop-color="#22DDEE" /></linearGradient></defs><g transform="matrix(1,0,0,1,-281.95,-25.95)">
        <path d="M704.923,853.895C725.922,871.02 749.435,880.01 774.648,883.486C778.323,884 782.046,882.965 784.928,880.628C787.787,878.309 789.564,874.915 789.842,871.246C789.511,875.879 789.97,880.459 791,885C759.576,883.474 730.4,874.672 704.923,853.895Z" style="fill:url(#bands);" />
        <path d="M790.409,866.788C790.959,863.502 790.197,860.129 788.281,857.397C786.328,854.612 783.34,852.726 779.986,852.162C784.93,852.99 789.934,853.603 795,854C792.661,858.317 791.185,862.576 790.409,866.788Z" style="fill:url(#bands);" />
        <path d="M696.423,832.292C696.423,832.293 696.423,832.294 696.502,832.306C695.341,840.479 698.534,848.666 704.923,853.895C701.549,851.144 698.241,848.182 695,845C695.418,840.436 695.879,836.122 696.423,832.292Z" style="fill:url(#bands);" />
        <path d="M711.916,824.8C709.035,823.116 705.504,822.917 702.438,824.295C699.194,825.752 696.923,828.771 696.423,832.292C697.511,824.635 698.929,818.914 701,817C704.596,819.749 708.235,822.35 711.916,824.8Z" style="fill:url(#bands);" />
        <path d="M975,647C974.555,644.131 976.382,641.358 982.486,638.745C988.809,635.946 996.215,637.529 1000.843,642.667C1003.835,645.99 1005.343,650.041 1005,655C1002.038,653.131 998.264,651.879 994,651C982.68,651.856 974.668,651.26 975,647Z" style="fill:url(#bands);" />
        <path d="M752,451C758.413,432.699 772.329,419.74 802,418C819.447,417.415 839.699,425.194 866,451C816.418,429.11 778.812,429.854 752,451Z" style="fill:url(#bands);" />
        <clipPath id="_clip1">
            <path d="M752,451C758.413,432.699 772.329,419.74 802,418C819.447,417.415 839.699,425.194 866,451C816.418,429.11 778.812,429.854 752,451Z" style="fill:url(#bands);" />
        </clipPath>
        <g clip-path="url(#_clip1)">
            <path d="M807.232,418.079C823.488,419.119 842.286,427.732 866,451C816.418,429.11 778.812,429.854 752,451C758.305,433.006 771.863,420.177 800.517,418.097C802.019,417.99 803.526,417.952 805.031,417.984C805.762,418 806.496,418.031 807.232,418.079Z" style="fill:url(#bands);" />
        </g>
        <ellipse cx="837.5" cy="875" rx="15.5" ry="16" style="fill:url(#bands);" />
        <path d="M911,618C903.821,569.493 883.773,535.882 851,517C866.253,567.45 861.962,606.093 825,625C839.889,629.522 857.053,631.978 878,631C865.129,639.547 845.766,640.387 822,636C808.111,634.906 791.628,626.144 774,614C748.848,598.386 731.526,573.956 720,543C704.069,540.433 692.557,534.379 683,524L711,523C687.487,517.015 666.472,504.667 655,468C671.494,482.506 686.418,491.42 699,492C682.05,474.389 677.92,456.309 680,438C689.926,456.703 703.218,472.452 727,479C714.351,461.236 712.938,444.394 717,428C728.231,450.531 743.657,469.598 772,478C782.461,470.567 799.24,467.959 827,471C915.21,505.709 912.332,561.542 911,618ZM772,595C759.695,559.045 760.843,530.995 774,510C758.55,515.437 748.669,528.266 747,552C755.222,579.964 763.602,588.618 772,595ZM797.5,518C790.049,518 784,524.273 784,532C784,539.727 790.049,546 797.5,546C804.951,546 811,539.727 811,532C811,524.273 804.951,518 797.5,518ZM783,562C778.976,561.934 775.642,563.486 774,569C778.634,592.765 786.331,613.881 816,616C833.177,615.003 842.39,601.278 845,577C842.597,573.542 840.274,571.747 838,571C814.153,603.752 796.848,594.083 783,562Z" style="fill:url(#bands);" />
        <clipPath id="_clip2">
            <path d="M911,618C903.821,569.493 883.773,535.882 851,517C866.253,567.45 861.962,606.093 825,625C839.889,629.522 857.053,631.978 878,631C865.129,639.547 845.766,640.387 822,636C808.111,634.906 791.628,626.144 774,614C748.848,598.386 731.526,573.956 720,543C704.069,540.433 692.557,534.379 683,524L711,523C687.487,517.015 666.472,504.667 655,468C671.494,482.506 686.418,491.42 699,492C682.05,474.389 677.92,456.309 680,438C689.926,456.703 703.218,472.452 727,479C714.351,461.236 712.938,444.394 717,428C728.231,450.531 743.657,469.598 772,478C782.461,470.567 799.24,467.959 827,471C915.21,505.709 912.332,561.542 911,618ZM772,595C759.695,559.045 760.843,530.995 774,510C758.55,515.437 748.669,528.266 747,552C755.222,579.964 763.602,588.618 772,595ZM797.5,518C790.049,518 784,524.273 784,532C784,539.727 790.049,546 797.5,546C804.951,546 811,539.727 811,532C811,524.273 804.951,518 797.5,518ZM783,562C778.976,561.934 775.642,563.486 774,569C778.634,592.765 786.331,613.881 816,616C833.177,615.003 842.39,601.278 845,577C842.597,573.542 840.274,571.747 838,571C814.153,603.752 796.848,594.083 783,562Z" style="fill:url(#bands);" />
        </clipPath>
        <g clip-path="url(#_clip2)">
            <path d="M911,618C903.821,569.493 883.773,535.882 851,517C866.253,567.45 861.962,606.093 825,625C839.889,629.522 857.053,631.978 878,631C865.129,639.547 845.766,640.387 822,636C808.111,634.906 791.628,626.144 774,614C748.848,598.386 731.526,573.956 720,543C704.069,540.433 692.557,534.379 683,524L711,523C687.487,517.015 666.472,504.667 655,468C671.494,482.506 686.418,491.42 699,492C682.05,474.389 677.92,456.309 680,438C689.926,456.703 703.218,472.452 727,479C714.351,461.236 712.938,444.394 717,428C728.231,450.531 743.657,469.598 772,478C781.907,470.961 797.479,468.249 822.677,470.564C825.326,471.062 827.952,471.684 830.546,472.427C903.306,502.361 911.393,547.303 911.396,594.731C911.396,602.455 911.183,610.231 911,618ZM783,562C778.976,561.934 775.642,563.486 774,569C778.634,592.765 786.331,613.881 816,616C833.177,615.003 842.39,601.278 845,577C842.597,573.542 840.274,571.747 838,571C814.153,603.752 796.848,594.083 783,562ZM772,595C759.695,559.045 760.843,530.995 774,510C758.55,515.437 748.669,528.266 747,552C755.222,579.964 763.602,588.618 772,595ZM797.5,518C790.049,518 784,524.273 784,532C784,539.727 790.049,546 797.5,546C804.951,546 811,539.727 811,532C811,524.273 804.951,518 797.5,518Z" style="fill:url(#bands);" />
        </g>
        <path d="M1100,418L1097,433C1106.376,457.624 1112.02,485.451 1111,519C1120.244,512.041 1126.996,505.036 1132,498C1132.276,510.583 1127.718,529.849 1118,539C1122.688,538.901 1129.277,535.694 1138,529C1131.698,541.993 1124.227,557.682 1112,559C1114.13,581.616 1109.173,596.703 1102,616L1105,656C1105,656 1135.208,648.448 1152.764,644.093C1161.727,641.852 1171.091,641.745 1180.103,643.78C1188.871,645.722 1196.601,648.065 1203.419,650.778C1217.769,656.508 1228.338,668.989 1231.626,684.087C1234.671,698.265 1230.774,710.82 1221,722C1203.372,745.155 1182.368,754.805 1159,755C1159.466,771.963 1150.884,780.075 1137,783C1133.689,784.271 1118.008,785.215 1095,783C1051.423,786.056 1053.904,788.564 1045,790C1004.667,805.394 980.333,810.469 949,813C930.627,812.884 918.062,813.027 906,808C884.12,819.667 879.533,829.333 880,841C883.722,868.295 892.014,893.951 902,919C902.675,929.063 898.364,938.814 885,948L691,883C582.158,849.623 512.887,763.403 492,669C475.435,675.691 469.987,708.311 471,756C445.906,738.319 439.581,707.481 457,660C411.261,677.248 390.205,711.862 377,752C364.544,695.527 362.332,636.993 427,565C364.322,578.117 326.322,610.41 299,651C298.752,587.791 322.248,528.929 400,480C363.654,470.852 324.13,477.464 282,497C301.678,445.392 343.515,406.314 415,384C393.016,364.754 362.2,354.253 318,357C361.264,319.486 408.242,304.685 459,313C429.618,276.601 415.819,231.86 434,170C460.753,205.766 483.927,225.183 505,235C498.599,187.335 509.707,136.633 555,80C555,80 578.264,161.712 584,147C608.183,84.979 663.626,27.106 747,26C723.366,62.481 725.582,94.129 748,122C805.187,86.243 861.568,64.422 917,59C873.098,97.765 854.106,136.053 853,174C879.583,165.014 906.555,162.863 934,169L987,106L993,275L1090,158L1087,304L1151,230L1100,418ZM701,817C697.894,819.872 696.254,831.31 695,845C722.713,872.213 755.415,883.271 791,885C788.713,874.912 789.239,864.633 795,854C760.926,851.33 729.625,838.883 701,817ZM837,847C820.994,847 808,859.994 808,876C808,892.006 820.994,905 837,905C853.006,905 866,892.006 866,876C866,859.994 853.006,847 837,847ZM809,836C830.121,818.178 850.323,803.009 867,798C839.352,790.995 809.459,775.116 779,757C743.487,736.502 731.923,715.388 731,694C728.662,679.906 732.413,649.592 788,645C822.684,652.322 843.03,661.437 853,661C868.912,667.908 910.205,645.016 952,608C980.446,588.47 1009.272,582.123 1039,607C1043.815,566.042 1046.461,523.578 1095,513L1094,500C1078.025,495.868 1067.396,503.159 1053,520C1057.194,499.098 1064.067,483.6 1092,484C1088.755,462.714 1083.415,449.744 1077,442C997.122,405.198 907.619,392.671 815,388C732.504,389.465 665.376,402.453 619,431C551.81,482.885 531.103,549.753 555,631L564,609C566.795,633.374 569.126,657.506 597,695L597,672C629.214,720.079 663.273,749.147 699,761C713.539,777.899 718.753,792.36 717,805C746.362,823.179 776.871,834.462 809,836ZM1049,595C1048.714,608.816 1050.083,620.038 1058,621C1065.885,618.249 1070.376,608.538 1073,595C1064.575,605.952 1056.49,608.123 1049,595ZM1084,663C1069.674,658.886 1056.519,650.579 1044,640C1032.098,626.235 1018.302,617.534 1004,612L983,613C943.365,645.702 911.623,667.278 889,676C858.532,685.016 836.915,682.02 819,674C801.593,666.758 785.384,663.98 771,668C753.484,675.211 748.299,690.264 752,702C757.287,711.764 763.291,720.32 771,726C826.208,761.521 880.529,786.877 933,791C947.737,792.873 962.017,792.627 976,791C1009.345,780.481 1042.59,770.093 1071,766L1129,766C1138.108,762.85 1139.149,758.472 1133,753C1124.191,747.393 1112.603,745.023 1099,745C1075.931,744 1056.634,747.916 1039,754C1000.321,765.961 982.635,769.839 972,771C949.234,774.231 929.21,771.942 911,766C876.29,757.488 845.747,741.791 817,723C806.544,717.487 797.793,709.969 792,701C786.192,704.667 784.287,708.333 783,712C773.566,703.112 780.001,695.388 791,688C799.679,686.046 810.632,685.33 818,693C812.086,692.6 809.071,693.398 808,695C843.191,722.996 878.586,735.72 914,747C929.858,750.522 946.923,752.815 969,750C992.749,746.813 1016.443,741.987 1040,733L1133,700C1150.251,695.305 1165.69,692.266 1177,693C1183.719,696.084 1187.87,700.03 1186,706C1173.8,702.021 1161.866,704.659 1150,709L1107,727C1123.555,729.827 1137.27,733.807 1148,739C1175.877,734.646 1197.784,722.099 1212,699C1211.493,675.232 1196.999,668.124 1180,664C1157.747,661.38 1135.811,666.623 1114,675C1066.98,695.119 1027.279,707.364 999,712L1084,663ZM1062,553C1057.585,553 1054,557.929 1054,564C1054,570.071 1057.585,575 1062,575C1066.415,575 1070,570.071 1070,564C1070,557.929 1066.415,553 1062,553ZM1082,540C1088.379,554.456 1094.224,602.53 1062,631L1072,637C1086.591,625.966 1097.599,602.598 1096,548C1095.283,542.375 1092.745,540.082 1089,540L1082,540ZM621,397C761.093,347.065 916.8,350.752 1082,413L1122,281L1069,340L1070,209L974,318L970,149L839,309L712,103L693,292L557,185L621,397Z" style="fill:url(#bands);" />
        <clipPath id="_clip3">
            <path d="M1100,418L1097,433C1106.376,457.624 1112.02,485.451 1111,519C1120.244,512.041 1126.996,505.036 1132,498C1132.276,510.583 1127.718,529.849 1118,539C1122.688,538.901 1129.277,535.694 1138,529C1131.698,541.993 1124.227,557.682 1112,559C1114.13,581.616 1109.173,596.703 1102,616L1105,656C1105,656 1135.208,648.448 1152.764,644.093C1161.727,641.852 1171.091,641.745 1180.103,643.78C1188.871,645.722 1196.601,648.065 1203.419,650.778C1217.769,656.508 1228.338,668.989 1231.626,684.087C1234.671,698.265 1230.774,710.82 1221,722C1203.372,745.155 1182.368,754.805 1159,755C1159.466,771.963 1150.884,780.075 1137,783C1133.689,784.271 1118.008,785.215 1095,783C1051.423,786.056 1053.904,788.564 1045,790C1004.667,805.394 980.333,810.469 949,813C930.627,812.884 918.062,813.027 906,808C884.12,819.667 879.533,829.333 880,841C883.722,868.295 892.014,893.951 902,919C902.675,929.063 898.364,938.814 885,948L691,883C582.158,849.623 512.887,763.403 492,669C475.435,675.691 469.987,708.311 471,756C445.906,738.319 439.581,707.481 457,660C411.261,677.248 390.205,711.862 377,752C364.544,695.527 362.332,636.993 427,565C364.322,578.117 326.322,610.41 299,651C298.752,587.791 322.248,528.929 400,480C363.654,470.852 324.13,477.464 282,497C301.678,445.392 343.515,406.314 415,384C393.016,364.754 362.2,354.253 318,357C361.264,319.486 408.242,304.685 459,313C429.618,276.601 415.819,231.86 434,170C460.753,205.766 483.927,225.183 505,235C498.599,187.335 509.707,136.633 555,80C555,80 578.264,161.712 584,147C608.183,84.979 663.626,27.106 747,26C723.366,62.481 725.582,94.129 748,122C805.187,86.243 861.568,64.422 917,59C873.098,97.765 854.106,136.053 853,174C879.583,165.014 906.555,162.863 934,169L987,106L993,275L1090,158L1087,304L1151,230L1100,418ZM701,817C697.894,819.872 696.254,831.31 695,845C722.713,872.213 755.415,883.271 791,885C788.713,874.912 789.239,864.633 795,854C760.926,851.33 729.625,838.883 701,817ZM837,847C820.994,847 808,859.994 808,876C808,892.006 820.994,905 837,905C853.006,905 866,892.006 866,876C866,859.994 853.006,847 837,847ZM809,836C830.121,818.178 850.323,803.009 867,798C839.352,790.995 809.459,775.116 779,757C743.487,736.502 731.923,715.388 731,694C728.662,679.906 732.413,649.592 788,645C822.684,652.322 843.03,661.437 853,661C868.912,667.908 910.205,645.016 952,608C980.446,588.47 1009.272,582.123 1039,607C1043.815,566.042 1046.461,523.578 1095,513L1094,500C1078.025,495.868 1067.396,503.159 1053,520C1057.194,499.098 1064.067,483.6 1092,484C1088.755,462.714 1083.415,449.744 1077,442C997.122,405.198 907.619,392.671 815,388C732.504,389.465 665.376,402.453 619,431C551.81,482.885 531.103,549.753 555,631L564,609C566.795,633.374 569.126,657.506 597,695L597,672C629.214,720.079 663.273,749.147 699,761C713.539,777.899 718.753,792.36 717,805C746.362,823.179 776.871,834.462 809,836ZM1049,595C1048.714,608.816 1050.083,620.038 1058,621C1065.885,618.249 1070.376,608.538 1073,595C1064.575,605.952 1056.49,608.123 1049,595ZM1084,663C1069.674,658.886 1056.519,650.579 1044,640C1032.098,626.235 1018.302,617.534 1004,612L983,613C943.365,645.702 911.623,667.278 889,676C858.532,685.016 836.915,682.02 819,674C801.593,666.758 785.384,663.98 771,668C753.484,675.211 748.299,690.264 752,702C757.287,711.764 763.291,720.32 771,726C826.208,761.521 880.529,786.877 933,791C947.737,792.873 962.017,792.627 976,791C1009.345,780.481 1042.59,770.093 1071,766L1129,766C1138.108,762.85 1139.149,758.472 1133,753C1124.191,747.393 1112.603,745.023 1099,745C1075.931,744 1056.634,747.916 1039,754C1000.321,765.961 982.635,769.839 972,771C949.234,774.231 929.21,771.942 911,766C876.29,757.488 845.747,741.791 817,723C806.544,717.487 797.793,709.969 792,701C786.192,704.667 784.287,708.333 783,712C773.566,703.112 780.001,695.388 791,688C799.679,686.046 810.632,685.33 818,693C812.086,692.6 809.071,693.398 808,695C843.191,722.996 878.586,735.72 914,747C929.858,750.522 946.923,752.815 969,750C992.749,746.813 1016.443,741.987 1040,733L1133,700C1150.251,695.305 1165.69,692.266 1177,693C1183.719,696.084 1187.87,700.03 1186,706C1173.8,702.021 1161.866,704.659 1150,709L1107,727C1123.555,729.827 1137.27,733.807 1148,739C1175.877,734.646 1197.784,722.099 1212,699C1211.493,675.232 1196.999,668.124 1180,664C1157.747,661.38 1135.811,666.623 1114,675C1066.98,695.119 1027.279,707.364 999,712L1084,663ZM1062,553C1057.585,553 1054,557.929 1054,564C1054,570.071 1057.585,575 1062,575C1066.415,575 1070,570.071 1070,564C1070,557.929 1066.415,553 1062,553ZM1082,540C1088.379,554.456 1094.224,602.53 1062,631L1072,637C1086.591,625.966 1097.599,602.598 1096,548C1095.283,542.375 1092.745,540.082 1089,540L1082,540ZM621,397C761.093,347.065 916.8,350.752 1082,413L1122,281L1069,340L1070,209L974,318L970,149L839,309L712,103L693,292L557,185L621,397Z" style="fill:url(#bands);" />
        </clipPath>
        <g clip-path="url(#_clip3)">
            <path d="M1100,418L1097,433C1106.376,457.624 1112.02,485.451 1111,519C1120.244,512.041 1126.996,505.036 1132,498C1132.276,510.583 1127.718,529.849 1118,539C1122.688,538.901 1129.277,535.694 1138,529C1131.698,541.993 1124.227,557.682 1112,559C1114.13,581.616 1109.173,596.703 1102,616L1105,656C1105,656 1135.208,648.448 1152.764,644.093C1161.727,641.852 1171.091,641.745 1180.103,643.78C1188.871,645.722 1196.601,648.065 1203.419,650.778C1217.769,656.508 1228.338,668.989 1231.626,684.087C1234.671,698.265 1230.774,710.82 1221,722C1203.372,745.155 1182.368,754.805 1159,755C1159.466,771.963 1150.884,780.075 1137,783C1133.689,784.271 1118.008,785.215 1095,783C1051.423,786.056 1053.904,788.564 1045,790C1004.667,805.394 980.333,810.469 949,813C930.627,812.884 918.062,813.027 906,808C884.12,819.667 879.533,829.333 880,841C883.722,868.295 892.014,893.951 902,919C902.675,929.063 898.364,938.814 885,948L691,883C582.158,849.623 512.887,763.403 492,669C475.435,675.691 469.987,708.311 471,756C445.906,738.319 439.581,707.481 457,660C411.261,677.248 390.205,711.862 377,752C364.544,695.527 362.332,636.993 427,565C364.322,578.117 326.322,610.41 299,651C298.752,587.791 322.248,528.929 400,480C363.654,470.852 324.13,477.464 282,497C301.678,445.392 343.515,406.314 415,384C393.016,364.754 362.2,354.253 318,357C361.264,319.486 408.242,304.685 459,313C429.618,276.601 415.819,231.86 434,170C460.753,205.766 483.927,225.183 505,235C498.599,187.335 509.707,136.633 555,80C555,80 578.264,161.712 584,147C608.183,84.979 663.626,27.106 747,26C723.366,62.481 725.582,94.129 748,122C805.187,86.243 861.568,64.422 917,59C873.098,97.765 854.106,136.053 853,174C879.583,165.014 906.555,162.863 934,169L987,106L993,275L1090,158L1087,304L1151,230L1100,418ZM1062,553C1057.585,553 1054,557.929 1054,564C1054,570.071 1057.585,575 1062,575C1066.415,575 1070,570.071 1070,564C1070,557.929 1066.415,553 1062,553ZM1082,540C1088.379,554.456 1094.224,602.53 1062,631L1072,637C1086.591,625.966 1097.599,602.598 1096,548C1095.283,542.375 1092.745,540.082 1089,540L1082,540ZM621,397C761.093,347.065 916.8,350.752 1082,413L1122,281L1069,340L1070,209L974,318L970,149L839,309L712,103L693,292L557,185L621,397ZM704.923,853.895C730.4,874.672 759.576,883.474 791,885C789.97,880.459 789.511,875.879 789.842,871.246C789.844,871.218 789.846,871.19 789.848,871.162C789.95,869.778 790.123,868.389 790.373,866.995C790.386,866.926 790.398,866.857 790.409,866.788C791.185,862.576 792.661,858.317 795,854C789.934,853.603 784.93,852.99 779.986,852.162L779.969,852.159C756.029,848.147 733.519,839.092 712.412,825.109C712.249,825.001 712.084,824.898 711.916,824.8C708.235,822.35 704.596,819.749 701,817C698.929,818.914 697.511,824.635 696.423,832.292C695.879,836.122 695.418,840.436 695,845C698.241,848.182 701.549,851.144 704.923,853.895ZM837,847C820.994,847 808,859.994 808,876C808,892.006 820.994,905 837,905C853.006,905 866,892.006 866,876C866,859.994 853.006,847 837,847ZM809,836C830.121,818.178 850.323,803.009 867,798C839.352,790.995 809.459,775.116 779,757C743.487,736.502 731.923,715.388 731,694C728.662,679.906 732.413,649.592 788,645C822.684,652.322 843.03,661.437 853,661C868.912,667.908 910.205,645.016 952,608C980.446,588.47 1009.272,582.123 1039,607C1043.815,566.042 1046.461,523.578 1095,513L1094,500C1078.025,495.868 1067.396,503.159 1053,520C1057.194,499.098 1064.067,483.6 1092,484C1088.755,462.714 1083.415,449.744 1077,442C997.122,405.198 907.619,392.671 815,388C732.504,389.465 665.376,402.453 619,431C551.81,482.885 531.103,549.753 555,631L564,609C566.795,633.374 569.126,657.506 597,695L597,672C629.214,720.079 663.273,749.147 699,761C713.539,777.899 718.753,792.36 717,805C746.362,823.179 776.871,834.462 809,836ZM1049,595C1048.714,608.816 1050.083,620.038 1058,621C1065.885,618.249 1070.376,608.538 1073,595C1064.575,605.952 1056.49,608.123 1049,595ZM1084,663C1069.674,658.886 1056.519,650.579 1044,640C1032.098,626.235 1018.302,617.534 1004,612L983,613C943.365,645.702 911.623,667.278 889,676C858.532,685.016 836.915,682.02 819,674C801.593,666.758 785.384,663.98 771,668C753.484,675.211 748.299,690.264 752,702C757.287,711.764 763.291,720.32 771,726C826.208,761.521 880.529,786.877 933,791C947.737,792.873 962.017,792.627 976,791C1009.345,780.481 1042.59,770.093 1071,766L1129,766C1138.108,762.85 1139.149,758.472 1133,753C1124.191,747.393 1112.603,745.023 1099,745C1075.931,744 1056.634,747.916 1039,754C1000.321,765.961 982.635,769.839 972,771C949.234,774.231 929.21,771.942 911,766C876.29,757.488 845.747,741.791 817,723C806.544,717.487 797.793,709.969 792,701C786.192,704.667 784.287,708.333 783,712C773.566,703.112 780.001,695.388 791,688C799.679,686.046 810.632,685.33 818,693C812.086,692.6 809.071,693.398 808,695C843.191,722.996 878.586,735.72 914,747C929.858,750.522 946.923,752.815 969,750C992.749,746.813 1016.443,741.987 1040,733L1133,700C1150.251,695.305 1165.69,692.266 1177,693C1183.719,696.084 1187.87,700.03 1186,706C1173.8,702.021 1161.866,704.659 1150,709L1107,727C1123.555,729.827 1137.27,733.807 1148,739C1175.877,734.646 1197.784,722.099 1212,699C1211.493,675.232 1196.999,668.124 1180,664C1157.747,661.38 1135.811,666.623 1114,675C1066.98,695.119 1027.279,707.364 999,712L1084,663Z" style="fill:url(#bands);" />
        </g>
        <g transform="matrix(1.722222,0,0,1.454545,-605.722222,-397.727273)">
            </g>
        <g transform="matrix(1.414634,0,0,1.348837,-347.756098,-306.255814)">
            </g>
        <g transform="matrix(1.125,0,0,1.076923,-101.375,-38.769231)">
            </g>
        <g transform="matrix(1.142857,0,0,1.222222,-151.714286,-127.777778)">
            </g>
        </g>
</svg>